<?xml version="1.0" encoding="utf-8"?>
<!-- Generator: Adobe Illustrator 15.0.0, SVG Export Plug-In  -->
<!DOCTYPE svg PUBLIC "-//W3C//DTD SVG 1.1//EN" "http://www.w3.org/Graphics/SVG/1.1/DTD/svg11.dtd" [
	<!ENTITY ns_flows "http://ns.adobe.com/Flows/1.0/">
]>
<svg version="1.1"
	 xmlns="http://www.w3.org/2000/svg" xmlns:xlink="http://www.w3.org/1999/xlink" xmlns:a="http://ns.adobe.com/AdobeSVGViewerExtensions/3.0/"
	 x="0px" y="0px" width="55px" height="63px" viewBox="0 0 55 63" overflow="visible" enable-background="new 0 0 55 63"
	 xml:space="preserve">
<defs>
</defs>
<path fill="#FFFFFF" d="M40.482,34.539v26.505c6.938-0.428,12.452-6.208,12.452-13.252S47.42,34.966,40.482,34.539 M39.656,62.721
	c-0.456,0-0.826-0.37-0.826-0.826V33.687c0-0.456,0.37-0.825,0.826-0.825c8.231,0,14.93,6.697,14.93,14.929
	C54.586,56.024,47.888,62.721,39.656,62.721"/>
<path fill="#FFFFFF" d="M21.003,61.07h12.523V34.461H21.003V61.07L21.003,61.07z M34.353,62.721H20.177
	c-0.456,0-0.826-0.37-0.826-0.826v-28.26c0-0.456,0.37-0.826,0.826-0.826h14.175c0.455,0,0.825,0.37,0.825,0.826v28.261
	C35.178,62.351,34.808,62.721,34.353,62.721"/>
<path fill="#FFFFFF" d="M40.482,1.729v26.505c6.938-0.428,12.452-6.208,12.452-13.252C52.935,7.938,47.42,2.158,40.482,1.729
	 M39.656,29.912c-0.456,0-0.826-0.37-0.826-0.826V0.878c0-0.456,0.37-0.826,0.826-0.826c8.231,0,14.93,6.698,14.93,14.93
	C54.586,23.215,47.888,29.912,39.656,29.912"/>
<path fill="#FFFFFF" d="M21.003,28.261h12.523V1.652H21.003V28.261L21.003,28.261z M34.353,29.912H20.177
	c-0.456,0-0.826-0.37-0.826-0.826V0.826C19.351,0.37,19.721,0,20.177,0h14.175c0.455,0,0.825,0.37,0.825,0.826v28.26
	C35.178,29.542,34.808,29.912,34.353,29.912"/>
<path fill="#FFFFFF" d="M1.651,61.02h12.523V1.652H1.651V61.02z M15,62.671H0.826C0.37,62.671,0,62.302,0,61.846V0.826
	C0,0.37,0.37,0,0.826,0H15c0.456,0,0.826,0.37,0.826,0.826v61.02C15.826,62.302,15.457,62.671,15,62.671"/>
</svg>
