<?xml version="1.0" encoding="utf-8"?>
<!-- Generator: Adobe Illustrator 15.0.0, SVG Export Plug-In  -->
<!DOCTYPE svg PUBLIC "-//W3C//DTD SVG 1.1//EN" "http://www.w3.org/Graphics/SVG/1.1/DTD/svg11.dtd" [
	<!ENTITY ns_flows "http://ns.adobe.com/Flows/1.0/">
]>
<svg version="1.1"
	 xmlns="http://www.w3.org/2000/svg" xmlns:xlink="http://www.w3.org/1999/xlink" xmlns:a="http://ns.adobe.com/AdobeSVGViewerExtensions/3.0/"
	 x="0px" y="0px" width="24px" height="15px" viewBox="0 0 24 15" overflow="visible" enable-background="new 0 0 24 15"
	 xml:space="preserve">
<defs>
</defs>
<path fill="#FFFFFF" d="M23.717,4.096L12.67,15.127c-0.188,0.189-0.412,0.283-0.67,0.283s-0.481-0.094-0.67-0.283L0.283,4.096
	C0.094,3.906,0,3.68,0,3.418c0-0.264,0.094-0.49,0.283-0.678l2.471-2.457C2.943,0.096,3.166,0,3.424,0
	c0.259,0,0.481,0.096,0.67,0.283L12,8.189l7.906-7.906C20.094,0.096,20.318,0,20.576,0s0.48,0.096,0.67,0.283l2.471,2.457
	C23.906,2.928,24,3.154,24,3.418C24,3.68,23.906,3.906,23.717,4.096z"/>
</svg>
