<?xml version="1.0" encoding="utf-8"?>
<!-- Generator: Adobe Illustrator 23.0.3, SVG Export Plug-In . SVG Version: 6.00 Build 0)  -->
<svg version="1.1" id="Layer_1" xmlns="http://www.w3.org/2000/svg" xmlns:xlink="http://www.w3.org/1999/xlink" x="0px" y="0px"
	 viewBox="0 0 130 74" style="enable-background:new 0 0 130 74;" xml:space="preserve">
<style type="text/css">
	.st0{fill:#F9F9F6;stroke:#FFFFFF;stroke-miterlimit:10;}
	.st1{clip-path:url(#SVGID_2_);}
	.st2{clip-path:url(#SVGID_4_);fill:#4BC7EE;}
	.st3{clip-path:url(#SVGID_6_);}
	.st4{clip-path:url(#SVGID_8_);enable-background:new    ;}
	.st5{clip-path:url(#SVGID_10_);}
	.st6{clip-path:url(#SVGID_12_);}
	.st7{clip-path:url(#SVGID_14_);fill:#5695CF;}
	.st8{clip-path:url(#SVGID_16_);}
	.st9{clip-path:url(#SVGID_18_);fill:#4BC7EE;}
	.st10{clip-path:url(#SVGID_20_);}
	.st11{clip-path:url(#SVGID_22_);fill:#5695CF;}
	.st12{clip-path:url(#SVGID_24_);}
	.st13{clip-path:url(#SVGID_26_);fill:#2B2C74;}
</style>
<rect y="-4" class="st0" width="130" height="87.51"/>
<g>
	<defs>
		<path id="SVGID_1_" d="M17.31,2.03c0.11-0.67,0.74-1.12,1.41-1.01l41.26,6.95c0.67,0.11,1.12,0.75,1,1.42
			c-2.01,12.12-13.45,20.33-25.49,18.31C23.45,25.66,15.29,14.15,17.31,2.03z M58.33,10.19L19.56,3.66
			c-1.07,10.32,6.03,19.86,16.34,21.6C46.2,27,56,20.3,58.33,10.19z"/>
	</defs>
	<clipPath id="SVGID_2_">
		<use xlink:href="#SVGID_1_"  style="overflow:visible;"/>
	</clipPath>
	<g class="st1">
		<defs>
			<rect id="SVGID_3_" x="-192" y="-349" width="1650" height="1172"/>
		</defs>
		<clipPath id="SVGID_4_">
			<use xlink:href="#SVGID_3_"  style="overflow:visible;"/>
		</clipPath>
		<rect x="12" y="-4" class="st2" width="54" height="37"/>
	</g>
</g>
<g>
	<defs>
		<rect id="SVGID_5_" x="1" y="1" width="128" height="72"/>
	</defs>
	<clipPath id="SVGID_6_">
		<use xlink:href="#SVGID_5_"  style="overflow:visible;"/>
	</clipPath>
	<g class="st3">
		<defs>
			<rect id="SVGID_7_" x="-192" y="-349" width="1650" height="1172"/>
		</defs>
		<clipPath id="SVGID_8_">
			<use xlink:href="#SVGID_7_"  style="overflow:visible;"/>
		</clipPath>
		<g class="st4">
			<g>
				<defs>
					<rect id="SVGID_9_" y="7" width="130" height="67"/>
				</defs>
				<clipPath id="SVGID_10_">
					<use xlink:href="#SVGID_9_"  style="overflow:visible;"/>
				</clipPath>
				<g class="st5">
					<defs>
						<path id="SVGID_11_" d="M90,27.2v20.6c0,0.66-0.54,1.2-1.21,1.2H47.21C46.54,49,46,48.46,46,47.8V27.2
							c0-0.66,0.54-1.2,1.21-1.2h41.57C89.46,26,90,26.54,90,27.2z M48.43,46.6h39.14V28.4H48.43V46.6z"/>
					</defs>
					<clipPath id="SVGID_12_">
						<use xlink:href="#SVGID_11_"  style="overflow:visible;"/>
					</clipPath>
					<g class="st6">
						<defs>
							<rect id="SVGID_13_" x="1" y="1" width="128" height="72"/>
						</defs>
						<clipPath id="SVGID_14_">
							<use xlink:href="#SVGID_13_"  style="overflow:visible;"/>
						</clipPath>
						<rect x="41" y="21" class="st7" width="54" height="33"/>
					</g>
				</g>
				<g class="st5">
					<defs>
						<path id="SVGID_15_" d="M110.23,48.71c-0.51,0.44-1.29,0.38-1.73-0.14l-27.21-31.6c-0.44-0.51-0.38-1.28,0.14-1.71
							c9.3-7.88,23.33-6.78,31.27,2.44C120.64,26.92,119.53,40.83,110.23,48.71 M83.98,16.35l25.57,29.69
							c7.42-7.12,8.08-18.87,1.28-26.76C104.03,11.39,92.23,10.19,83.98,16.35"/>
					</defs>
					<clipPath id="SVGID_16_">
						<use xlink:href="#SVGID_15_"  style="overflow:visible;"/>
					</clipPath>
					<g class="st8">
						<defs>
							<rect id="SVGID_17_" x="1" y="1" width="128" height="72"/>
						</defs>
						<clipPath id="SVGID_18_">
							<use xlink:href="#SVGID_17_"  style="overflow:visible;"/>
						</clipPath>
						<rect x="76" y="5" class="st9" width="47" height="49"/>
					</g>
				</g>
				<g class="st5">
					<defs>
						<path id="SVGID_19_" d="M27.53,24.24L44.5,36.66c0.55,0.4,0.67,1.17,0.27,1.72L20.18,72.49c-0.4,0.55-1.16,0.67-1.71,0.27
							L1.5,60.34c-0.55-0.4-0.67-1.17-0.27-1.72l24.58-34.11C26.21,23.96,26.98,23.84,27.53,24.24z M42.07,37.93L27.08,26.95
							L3.93,59.07l15,10.98L42.07,37.93z"/>
					</defs>
					<clipPath id="SVGID_20_">
						<use xlink:href="#SVGID_19_"  style="overflow:visible;"/>
					</clipPath>
					<g class="st10">
						<defs>
							<rect id="SVGID_21_" x="1" y="1" width="128" height="72"/>
						</defs>
						<clipPath id="SVGID_22_">
							<use xlink:href="#SVGID_21_"  style="overflow:visible;"/>
						</clipPath>
						<rect x="-4" y="19" class="st11" width="54" height="59"/>
					</g>
				</g>
				<g class="st5">
					<defs>
						<path id="SVGID_23_" d="M129,51.2v20.6c0,0.66-0.55,1.2-1.22,1.2H37.22C36.55,73,36,72.46,36,71.8V51.2
							c0-0.66,0.55-1.2,1.22-1.2h90.55C128.45,50,129,50.54,129,51.2z M38.45,70.6h88.1V52.4h-88.1V70.6z"/>
					</defs>
					<clipPath id="SVGID_24_">
						<use xlink:href="#SVGID_23_"  style="overflow:visible;"/>
					</clipPath>
					<g class="st12">
						<defs>
							<rect id="SVGID_25_" x="1" y="1" width="128" height="72"/>
						</defs>
						<clipPath id="SVGID_26_">
							<use xlink:href="#SVGID_25_"  style="overflow:visible;"/>
						</clipPath>
						<rect x="31" y="45" class="st13" width="103" height="33"/>
					</g>
				</g>
			</g>
		</g>
	</g>
</g>
</svg>
