<?xml version="1.0" encoding="utf-8"?>
<!-- Generator: Adobe Illustrator 15.0.0, SVG Export Plug-In  -->
<!DOCTYPE svg PUBLIC "-//W3C//DTD SVG 1.1//EN" "http://www.w3.org/Graphics/SVG/1.1/DTD/svg11.dtd" [
	<!ENTITY ns_flows "http://ns.adobe.com/Flows/1.0/">
]>
<svg version="1.1"
	 xmlns="http://www.w3.org/2000/svg" xmlns:xlink="http://www.w3.org/1999/xlink" xmlns:a="http://ns.adobe.com/AdobeSVGViewerExtensions/3.0/"
	 x="0px" y="0px" width="416px" height="28px" viewBox="0 0 416 28" overflow="visible" enable-background="new 0 0 416 28"
	 xml:space="preserve">
<defs>
</defs>
<polygon display="none" fill="#FFFFFF" points="362.321,8.494 359.732,20.69 356.142,8.494 352.332,8.494 348.722,20.671 
	346.151,8.494 341.064,8.494 346.096,27.646 350.49,27.646 354.228,15.592 357.965,27.646 362.376,27.646 367.406,8.494 "/>
<path display="none" fill="#FFFFFF" d="M375.197,24.087c0.764,0,1.464-0.169,2.106-0.504c0.643-0.338,1.117-0.788,1.426-1.354
	v-3.292h-1.927c-2.578,0-3.952,0.885-4.119,2.654l-0.018,0.302c0,0.637,0.226,1.162,0.679,1.575
	C373.795,23.882,374.414,24.087,375.197,24.087 M379.46,27.646c-0.236-0.46-0.41-1.033-0.517-1.718
	c-1.248,1.381-2.871,2.071-4.867,2.071c-1.892,0-3.457-0.542-4.698-1.63c-1.242-1.085-1.863-2.452-1.863-4.104
	c0-2.031,0.758-3.589,2.272-4.673c1.518-1.085,3.706-1.635,6.571-1.646h2.371v-1.097c0-0.884-0.228-1.592-0.687-2.123
	c-0.459-0.531-1.18-0.796-2.169-0.796c-0.865,0-1.547,0.206-2.04,0.621c-0.493,0.412-0.739,0.979-0.739,1.698h-5.153
	c0-1.108,0.342-2.135,1.033-3.081c0.689-0.943,1.663-1.683,2.925-2.22c1.259-0.537,2.675-0.806,4.244-0.806
	c2.378,0,4.266,0.593,5.663,1.778c1.396,1.186,2.094,2.853,2.094,5v8.301c0.012,1.817,0.269,3.19,0.765,4.123v0.302L379.46,27.646
	L379.46,27.646z"/>
<path display="none" fill="#FFFFFF" d="M397.573,13.291c-0.702-0.094-1.32-0.141-1.855-0.141c-1.949,0-3.229,0.655-3.834,1.965
	v12.531h-5.153V8.494h4.868l0.143,2.283c1.034-1.757,2.467-2.637,4.298-2.637c0.57,0,1.104,0.078,1.604,0.231L397.573,13.291z"/>
<path display="none" fill="#FFFFFF" d="M407.357,12.265c-1.024,0-1.853,0.342-2.488,1.03c-0.635,0.688-1.043,1.67-1.222,2.952h7.169
	v-0.409c-0.023-1.138-0.333-2.017-0.93-2.64C409.293,12.576,408.449,12.265,407.357,12.265 M407.945,28
	c-2.83,0-5.133-0.86-6.91-2.584c-1.776-1.723-2.665-4.018-2.665-6.884v-0.495c0-1.924,0.374-3.644,1.122-5.16
	c0.747-1.518,1.81-2.684,3.184-3.504c1.374-0.82,2.939-1.231,4.697-1.231c2.641,0,4.717,0.826,6.232,2.479
	c1.518,1.651,2.273,3.993,2.273,7.024v2.089h-12.287c0.166,1.251,0.669,2.254,1.508,3.009c0.836,0.755,1.898,1.134,3.183,1.134
	c1.985,0,3.537-0.715,4.655-2.144l2.531,2.815c-0.775,1.087-1.82,1.932-3.141,2.541C411.012,27.695,409.551,28,407.945,28"/>
<path display="none" fill="#FFFFFF" d="M241.229,6.837c0-1.82,1.014-2.699,2.929-2.699c0.326,0,0.658,0.079,0.931,0.079h0.014
	l0.216-3.946C244.548,0.121,243.79,0,243.224,0c-2.208,0-4.072,0.584-5.3,1.771s-1.99,2.845-1.99,4.993v1.936h-2.444v3.666h2.444
	v15.482h5.297V12.364h4.074V8.697h-4.074L241.229,6.837L241.229,6.837z"/>
<path display="none" fill="#FFFFFF" d="M223.139,23.682c-0.765,0-1.237-0.153-1.51-0.46c-0.269-0.307-0.362-0.812-0.362-1.521
	v-9.337h3.668V8.697h-3.668V3.402h-5.705v5.295h-2.034v3.667h2.034V22.46c0,3.622,2.306,5.435,5.874,5.435
	c1.057,0,1.868-0.153,3.497-0.46V23.56C224.119,23.64,223.7,23.682,223.139,23.682"/>
<path display="none" fill="#FFFFFF" d="M46.619,17.785c0-1.941-0.307-3.358-0.92-4.251c-0.613-0.894-1.528-1.341-2.743-1.341
	c-1.629,0-2.75,0.668-3.364,2.006v7.58c0.625,1.351,1.758,2.024,3.398,2.024c1.653,0,2.738-0.816,3.257-2.45
	C46.496,20.572,46.619,19.382,46.619,17.785 M51.733,18.175c0,3.068-0.655,5.459-1.964,7.177c-1.31,1.717-3.139,2.575-5.486,2.575
	c-2.078,0-3.736-0.796-4.975-2.389l-0.23,2.035h-4.602V0.387h5.115v9.752c1.18-1.379,2.73-2.071,4.655-2.071
	c2.335,0,4.167,0.859,5.495,2.576c1.328,1.716,1.991,4.132,1.991,7.249V18.175L51.733,18.175z"/>
<path display="none" fill="#FFFFFF" d="M61.955,12.192c-1.015,0-1.838,0.343-2.469,1.031c-0.631,0.688-1.036,1.671-1.212,2.952
	h7.116v-0.41c-0.025-1.138-0.331-2.017-0.921-2.64C63.877,12.503,63.04,12.192,61.955,12.192 M62.538,27.926
	c-2.809,0-5.095-0.86-6.859-2.584c-1.765-1.722-2.646-4.017-2.646-6.885v-0.495c0-1.923,0.372-3.644,1.115-5.161
	c0.743-1.516,1.796-2.684,3.159-3.503c1.363-0.82,2.917-1.231,4.663-1.231c2.621,0,4.682,0.826,6.186,2.479
	c1.505,1.652,2.257,3.992,2.257,7.024v2.089H58.219c0.166,1.251,0.663,2.254,1.496,3.01c0.832,0.755,1.885,1.132,3.159,1.132
	c1.97,0,3.51-0.713,4.619-2.141l2.515,2.812c-0.768,1.087-1.807,1.934-3.116,2.54C65.583,27.623,64.131,27.926,62.538,27.926"/>
<path display="none" fill="#FFFFFF" d="M78.535,3.714v4.708h3.853v3.753h-3.853v9.558c0,0.708,0.135,1.215,0.406,1.521
	c0.271,0.309,0.792,0.46,1.558,0.46c0.567,0,1.069-0.042,1.505-0.125v3.877c-1.003,0.308-2.035,0.458-3.098,0.458
	c-3.587,0-5.415-1.81-5.485-5.433V12.173h-2.797V8.421h2.796V3.714L78.535,3.714L78.535,3.714z"/>
<path display="none" fill="#FFFFFF" d="M91.616,3.714v4.708h3.274v3.753h-3.274v9.558c0,0.708,0.135,1.215,0.406,1.521
	c0.271,0.309,0.791,0.46,1.557,0.46c0.567,0,1.067-0.042,1.505-0.125v3.877c-1.002,0.308-2.036,0.458-3.096,0.458
	c-3.587,0-5.417-1.81-5.487-5.433V12.173h-2.796V8.421H86.5V3.714L91.616,3.714L91.616,3.714z"/>
<path display="none" fill="#FFFFFF" d="M104.954,12.192c-1.014,0-1.836,0.343-2.469,1.031c-0.631,0.688-1.036,1.671-1.212,2.952
	h7.115v-0.41c-0.024-1.138-0.33-2.017-0.919-2.64C106.877,12.503,106.039,12.192,104.954,12.192 M105.538,27.926
	c-2.809,0-5.094-0.86-6.859-2.584c-1.764-1.722-2.646-4.017-2.646-6.885v-0.495c0-1.923,0.373-3.644,1.115-5.161
	c0.743-1.516,1.796-2.684,3.159-3.503c1.364-0.82,2.918-1.231,4.664-1.231c2.62,0,4.682,0.826,6.186,2.479
	c1.504,1.652,2.257,3.992,2.257,7.024v2.089H101.22c0.165,1.251,0.663,2.254,1.495,3.01c0.833,0.755,1.885,1.132,3.159,1.132
	c1.971,0,3.51-0.713,4.619-2.141l2.514,2.812c-0.768,1.087-1.806,1.934-3.116,2.54C108.583,27.623,107.131,27.926,105.538,27.926"/>
<path display="none" fill="#FFFFFF" d="M126.171,13.218c-0.696-0.094-1.309-0.141-1.84-0.141c-1.935,0-3.205,0.654-3.805,1.965
	v12.53h-5.117V8.421h4.832l0.143,2.283c1.025-1.757,2.449-2.636,4.266-2.636c0.565,0,1.097,0.077,1.592,0.23L126.171,13.218z"/>
<path display="none" fill="#FFFFFF" d="M145.138,22.248c0-0.624-0.309-1.118-0.929-1.478c-0.618-0.359-1.614-0.682-2.982-0.965
	c-4.554-0.956-6.831-2.891-6.831-5.806c0-1.698,0.704-3.117,2.114-4.256c1.41-1.14,3.254-1.707,5.53-1.707
	c2.43,0,4.375,0.572,5.833,1.716s2.186,2.632,2.186,4.46h-5.116c0-0.732-0.235-1.335-0.707-1.815
	c-0.472-0.478-1.21-0.717-2.212-0.717c-0.862,0-1.528,0.195-2,0.584c-0.472,0.388-0.708,0.884-0.708,1.486
	c0,0.566,0.268,1.023,0.806,1.373c0.536,0.348,1.443,0.648,2.717,0.902c1.274,0.255,2.348,0.54,3.221,0.859
	c2.703,0.991,4.054,2.709,4.054,5.151c0,1.745-0.75,3.158-2.249,4.238c-1.497,1.08-3.433,1.62-5.804,1.62
	c-1.605,0-3.03-0.286-4.275-0.859c-1.244-0.573-2.221-1.356-2.929-2.354c-0.708-0.998-1.062-2.073-1.062-3.23h4.85
	c0.047,0.908,0.383,1.604,1.008,2.088s1.463,0.726,2.513,0.726c0.979,0,1.719-0.187,2.221-0.558S145.138,22.849,145.138,22.248"/>
<path display="none" fill="#FFFFFF" d="M160.051,23.771c0.939,0,1.703-0.26,2.29-0.781c0.587-0.519,0.892-1.209,0.915-2.069h4.774
	c-0.012,1.299-0.365,2.486-1.058,3.565c-0.692,1.079-1.64,1.917-2.844,2.513c-1.204,0.597-2.533,0.894-3.989,0.894
	c-2.724,0-4.872-0.87-6.445-2.609c-1.574-1.741-2.36-4.145-2.36-7.213v-0.337c0-2.95,0.781-5.304,2.343-7.062
	c1.562-1.758,3.704-2.637,6.427-2.637c2.384,0,4.294,0.681,5.733,2.045c1.438,1.362,2.168,3.176,2.193,5.443h-4.774
	c-0.023-0.997-0.328-1.807-0.915-2.43s-1.362-0.933-2.325-0.933c-1.186,0-2.081,0.435-2.686,1.303
	c-0.604,0.869-0.906,2.279-0.906,4.227v0.532c0,1.974,0.299,3.392,0.898,4.255C157.92,23.339,158.829,23.771,160.051,23.771"/>
<path display="none" fill="#FFFFFF" d="M175.318,27.541h-5.108V8.39h5.108V27.541z M169.911,3.434c0-0.766,0.255-1.399,0.766-1.894
	c0.511-0.496,1.207-0.743,2.087-0.743c0.87,0,1.562,0.248,2.078,0.743c0.517,0.495,0.775,1.127,0.775,1.894
	c0,0.778-0.261,1.417-0.784,1.912c-0.522,0.496-1.212,0.742-2.069,0.742c-0.857,0-1.547-0.247-2.07-0.742
	C170.171,4.851,169.911,4.212,169.911,3.434"/>
<path display="none" fill="#FFFFFF" d="M186.05,12.16c-1.01,0-1.828,0.343-2.456,1.03s-1.03,1.67-1.206,2.952h7.08v-0.41
	c-0.024-1.137-0.33-2.018-0.916-2.64C187.964,12.471,187.131,12.16,186.05,12.16 M186.631,27.894c-2.794,0-5.069-0.861-6.823-2.584
	c-1.756-1.724-2.633-4.018-2.633-6.884V17.93c0-1.923,0.369-3.643,1.109-5.16c0.739-1.517,1.787-2.684,3.144-3.504
	c1.355-0.82,2.902-1.23,4.64-1.23c2.607,0,4.658,0.825,6.155,2.478c1.497,1.652,2.246,3.994,2.246,7.025v2.088h-12.135
	c0.165,1.253,0.66,2.254,1.49,3.009c0.826,0.756,1.874,1.135,3.141,1.135c1.961,0,3.494-0.716,4.597-2.145l2.501,2.815
	c-0.764,1.085-1.796,1.933-3.1,2.539C189.66,27.59,188.216,27.894,186.631,27.894"/>
<path display="none" fill="#FFFFFF" d="M201.076,8.39l0.159,2.212c1.357-1.71,3.178-2.566,5.462-2.566
	c2.014,0,3.513,0.596,4.499,1.787c0.982,1.191,1.486,2.976,1.509,5.345v12.373h-5.076V15.265c0-1.089-0.235-1.878-0.704-2.37
	c-0.469-0.489-1.247-0.735-2.335-0.735c-1.43,0-2.5,0.615-3.215,1.846v13.536h-5.075V8.39H201.076L201.076,8.39z"/>
<path display="none" fill="#FFFFFF" d="M231.508,27.541H226.4V8.39h5.107V27.541z M226.1,3.434c0-0.766,0.257-1.399,0.768-1.894
	c0.508-0.496,1.206-0.743,2.085-0.743c0.868,0,1.562,0.248,2.078,0.743c0.518,0.495,0.776,1.127,0.776,1.894
	c0,0.778-0.263,1.417-0.786,1.912c-0.521,0.496-1.211,0.742-2.068,0.742c-0.858,0-1.545-0.247-2.07-0.742
	C226.362,4.851,226.1,4.212,226.1,3.434"/>
<path display="none" fill="#FFFFFF" d="M252.306,27.541h-5.106V8.39h5.106V27.541L252.306,27.541z M246.899,3.434
	c0-0.766,0.255-1.399,0.766-1.894c0.51-0.495,1.207-0.743,2.086-0.743c0.869,0,1.562,0.248,2.077,0.743
	c0.517,0.495,0.773,1.127,0.773,1.894c0,0.778-0.259,1.417-0.781,1.912c-0.522,0.496-1.212,0.742-2.069,0.742
	c-0.856,0-1.546-0.247-2.069-0.742C247.16,4.851,246.899,4.212,246.899,3.434"/>
<path display="none" fill="#FFFFFF" d="M262.847,23.771c0.94,0,1.703-0.26,2.289-0.781c0.589-0.519,0.893-1.209,0.916-2.069h4.772
	c-0.013,1.299-0.365,2.486-1.057,3.565c-0.694,1.079-1.641,1.917-2.844,2.513c-1.204,0.597-2.534,0.894-3.989,0.894
	c-2.722,0-4.871-0.87-6.443-2.609c-1.573-1.741-2.36-4.145-2.36-7.213v-0.337c0-2.95,0.779-5.304,2.342-7.062
	c1.56-1.758,3.703-2.637,6.426-2.637c2.385,0,4.294,0.681,5.732,2.045c1.438,1.362,2.17,3.176,2.192,5.443h-4.771
	c-0.023-0.997-0.328-1.807-0.916-2.43c-0.586-0.623-1.361-0.933-2.324-0.933c-1.186,0-2.081,0.435-2.687,1.303
	c-0.604,0.869-0.905,2.279-0.905,4.227v0.532c0,1.974,0.297,3.392,0.898,4.255C260.716,23.339,261.626,23.771,262.847,23.771"/>
<path display="none" fill="#FFFFFF" d="M290.238,22.352c0-0.623-0.309-1.117-0.931-1.476c-0.618-0.361-1.61-0.682-2.982-0.965
	c-4.553-0.956-6.83-2.892-6.83-5.806c0-1.7,0.704-3.119,2.114-4.257c1.409-1.139,3.254-1.708,5.53-1.708
	c2.43,0,4.375,0.573,5.833,1.717c1.457,1.144,2.185,2.631,2.185,4.459h-5.115c0-0.731-0.236-1.335-0.709-1.813
	c-0.472-0.479-1.21-0.718-2.211-0.718c-0.861,0-1.529,0.196-2.001,0.584c-0.473,0.389-0.709,0.884-0.709,1.487
	c0,0.565,0.27,1.023,0.808,1.372c0.536,0.347,1.443,0.648,2.718,0.902c1.273,0.255,2.347,0.54,3.221,0.859
	c2.702,0.992,4.054,2.708,4.054,5.15c0,1.748-0.75,3.16-2.249,4.238c-1.495,1.08-3.431,1.62-5.803,1.62
	c-1.604,0-3.03-0.285-4.275-0.859c-1.244-0.573-2.22-1.355-2.929-2.354c-0.707-0.998-1.061-2.074-1.061-3.23h4.849
	c0.047,0.909,0.383,1.605,1.007,2.088c0.625,0.484,1.466,0.726,2.514,0.726c0.979,0,1.719-0.186,2.223-0.557
	C289.987,23.442,290.238,22.956,290.238,22.352"/>
<path display="none" fill="#FFFFFF" d="M301.554,18.255c0,1.821,0.34,3.213,1.024,4.177c0.684,0.963,1.663,1.444,2.938,1.444
	c1.238,0,2.206-0.476,2.903-1.427c0.695-0.952,1.046-2.473,1.046-4.564c0-1.783-0.348-3.166-1.046-4.148
	c-0.695-0.981-1.676-1.471-2.938-1.471c-1.253,0-2.221,0.486-2.904,1.462C301.896,14.702,301.554,16.211,301.554,18.255
	 M296.438,17.894c0-1.9,0.367-3.594,1.097-5.081c0.732-1.486,1.786-2.636,3.159-3.451c1.375-0.813,2.971-1.222,4.789-1.222
	c2.582,0,4.693,0.791,6.326,2.372c1.636,1.582,2.547,3.729,2.735,6.442l0.034,1.31c0,2.938-0.82,5.295-2.458,7.071
	C310.479,27.113,308.279,28,305.52,28c-2.761,0-4.964-0.885-6.61-2.656c-1.646-1.768-2.469-4.177-2.469-7.22L296.438,17.894
	L296.438,17.894z"/>
<path display="none" fill="#FFFFFF" d="M317.573,27.646V12.247h-2.871V8.493h2.871V6.866c0-2.147,0.623-3.814,1.864-5
	c1.241-1.188,2.979-1.779,5.215-1.779c0.716,0,1.588,0.117,2.622,0.351l-0.055,3.933c-0.427-0.106-0.951-0.16-1.566-0.16
	c-1.941,0-2.908,0.911-2.908,2.731v1.551h3.836v3.754h-3.836v15.399H317.573L317.573,27.646z"/>
<path display="none" fill="#FFFFFF" d="M336.08,3.786v4.707h3.301v3.754h-3.301v9.558c0,0.707,0.137,1.215,0.412,1.521
	c0.271,0.308,0.796,0.459,1.568,0.459c0.569,0,1.075-0.04,1.516-0.123v3.874c-1.011,0.309-2.053,0.46-3.12,0.46
	c-3.613,0-5.457-1.811-5.527-5.433V12.245h-2.816V8.492h2.816V3.785L336.08,3.786L336.08,3.786z"/>
<path display="none" fill="#C3E7EF" d="M17.72,15.421v11.602c3.037-0.188,5.45-2.718,5.45-5.801S20.756,15.609,17.72,15.421
	 M17.357,27.757c-0.2,0-0.361-0.161-0.361-0.361V15.049c0-0.2,0.162-0.361,0.361-0.361c3.604,0,6.535,2.931,6.535,6.534
	C23.893,24.825,20.961,27.757,17.357,27.757"/>
<path display="none" fill="#4FC7ED" d="M9.193,27.035h5.481V15.388H9.193V27.035L9.193,27.035z M15.037,27.757H8.832
	c-0.199,0-0.361-0.161-0.361-0.361v-12.37c0-0.2,0.162-0.362,0.361-0.362h6.205c0.2,0,0.361,0.162,0.361,0.362v12.37
	C15.398,27.596,15.235,27.757,15.037,27.757"/>
<path display="none" fill="#C3E7EF" d="M17.72,1.062v11.602c3.037-0.188,5.45-2.718,5.45-5.801
	C23.169,3.779,20.756,1.249,17.72,1.062 M17.357,13.397c-0.2,0-0.361-0.162-0.361-0.362V0.688c0-0.2,0.162-0.362,0.361-0.362
	c3.604,0,6.535,2.932,6.535,6.535C23.893,10.465,20.961,13.397,17.357,13.397"/>
<path display="none" fill="#4FC7ED" d="M9.193,12.674h5.481V1.027H9.193V12.674L9.193,12.674z M15.037,13.397H8.832
	c-0.199,0-0.361-0.162-0.361-0.362V0.666c0-0.2,0.162-0.363,0.361-0.363h6.205c0.2,0,0.361,0.163,0.361,0.363v12.369
	C15.398,13.235,15.235,13.397,15.037,13.397"/>
<path display="none" fill="#4DC7EE" d="M0.723,27.012h5.482V1.027H0.723V27.012z M6.566,27.735H0.362
	c-0.2,0-0.362-0.162-0.362-0.361V0.666c0-0.2,0.162-0.363,0.362-0.363h6.204c0.199,0,0.362,0.163,0.362,0.363v26.708
	C6.928,27.573,6.765,27.735,6.566,27.735"/>
<path fill="#349DFF" d="M46.619,17.784c0-1.941-0.307-3.357-0.92-4.25c-0.613-0.894-1.528-1.341-2.743-1.341
	c-1.629,0-2.75,0.668-3.364,2.006v7.579c0.625,1.352,1.758,2.025,3.398,2.025c1.652,0,2.738-0.816,3.256-2.449
	C46.496,20.572,46.619,19.382,46.619,17.784 M51.733,18.174c0,3.07-0.655,5.46-1.964,7.178c-1.31,1.717-3.139,2.575-5.486,2.575
	c-2.078,0-3.736-0.796-4.975-2.388l-0.23,2.035h-4.602V0.387h5.115v9.753c1.18-1.38,2.731-2.071,4.656-2.071
	c2.335,0,4.167,0.859,5.495,2.576c1.328,1.717,1.991,4.132,1.991,7.249V18.174L51.733,18.174z"/>
<path fill="#349DFF" d="M61.955,12.192c-1.015,0-1.838,0.343-2.469,1.031c-0.631,0.688-1.036,1.67-1.212,2.951h7.115v-0.409
	c-0.024-1.138-0.331-2.017-0.921-2.64C63.877,12.503,63.04,12.192,61.955,12.192 M62.538,27.926c-2.809,0-5.095-0.86-6.858-2.584
	c-1.764-1.723-2.646-4.018-2.646-6.885v-0.494c0-1.924,0.372-3.645,1.115-5.162c0.743-1.516,1.796-2.684,3.159-3.503
	c1.363-0.82,2.917-1.231,4.663-1.231c2.621,0,4.682,0.826,6.186,2.479c1.505,1.652,2.257,3.993,2.257,7.024v2.089H58.219
	c0.166,1.251,0.663,2.254,1.496,3.009c0.832,0.756,1.885,1.133,3.159,1.133c1.97,0,3.51-0.713,4.619-2.141l2.514,2.812
	c-0.768,1.088-1.806,1.933-3.116,2.541C65.583,27.623,64.131,27.926,62.538,27.926"/>
<path fill="#349DFF" d="M78.535,3.714v4.708h3.853v3.753h-3.853v9.558c0,0.708,0.135,1.215,0.406,1.521
	c0.271,0.308,0.792,0.46,1.557,0.46c0.567,0,1.069-0.042,1.505-0.125v3.877c-1.003,0.307-2.036,0.458-3.098,0.458
	c-3.587,0-5.416-1.811-5.485-5.434V12.173h-2.797V8.421h2.796V3.714L78.535,3.714L78.535,3.714z"/>
<path fill="#349DFF" d="M91.615,3.714v4.708h3.275v3.753h-3.275v9.558c0,0.708,0.135,1.215,0.407,1.521
	c0.271,0.308,0.79,0.46,1.557,0.46c0.567,0,1.067-0.042,1.504-0.125v3.877c-1.002,0.307-2.035,0.458-3.096,0.458
	c-3.587,0-5.417-1.811-5.487-5.434V12.173h-2.796V8.421H86.5V3.714L91.615,3.714L91.615,3.714z"/>
<path fill="#349DFF" d="M104.954,12.192c-1.014,0-1.836,0.343-2.469,1.031c-0.631,0.688-1.036,1.67-1.212,2.951h7.114v-0.409
	c-0.023-1.138-0.329-2.017-0.919-2.64C106.877,12.503,106.039,12.192,104.954,12.192 M105.538,27.926
	c-2.809,0-5.094-0.86-6.859-2.584c-1.765-1.723-2.646-4.018-2.646-6.885v-0.494c0-1.924,0.372-3.645,1.115-5.162
	c0.744-1.516,1.797-2.684,3.159-3.503c1.363-0.82,2.918-1.231,4.664-1.231c2.62,0,4.682,0.826,6.187,2.479
	c1.504,1.652,2.257,3.993,2.257,7.024v2.089H101.22c0.165,1.251,0.663,2.254,1.495,3.009c0.833,0.756,1.885,1.133,3.16,1.133
	c1.971,0,3.51-0.713,4.62-2.141l2.514,2.812c-0.768,1.088-1.806,1.933-3.116,2.541C108.583,27.623,107.131,27.926,105.538,27.926"/>
<path fill="#349DFF" d="M126.171,13.218c-0.696-0.094-1.309-0.141-1.84-0.141c-1.935,0-3.205,0.654-3.805,1.965v12.531h-5.117V8.421
	h4.832l0.143,2.284c1.026-1.757,2.449-2.637,4.266-2.637c0.565,0,1.097,0.078,1.593,0.23L126.171,13.218z"/>
<path fill="#349DFF" d="M145.138,22.249c0-0.625-0.31-1.119-0.93-1.479c-0.619-0.359-1.614-0.682-2.982-0.965
	c-4.554-0.956-6.831-2.891-6.831-5.806c0-1.699,0.704-3.118,2.114-4.256c1.409-1.14,3.254-1.707,5.53-1.707
	c2.431,0,4.375,0.572,5.833,1.716c1.457,1.144,2.186,2.632,2.186,4.459h-5.116c0-0.731-0.236-1.335-0.708-1.814
	c-0.472-0.478-1.209-0.717-2.212-0.717c-0.862,0-1.528,0.194-2.001,0.584c-0.471,0.388-0.708,0.884-0.708,1.486
	c0,0.566,0.268,1.023,0.806,1.372c0.536,0.348,1.443,0.648,2.717,0.902c1.274,0.254,2.347,0.54,3.221,0.859
	c2.703,0.991,4.054,2.709,4.054,5.15c0,1.746-0.75,3.16-2.248,4.24c-1.498,1.079-3.434,1.619-5.805,1.619
	c-1.605,0-3.03-0.286-4.275-0.859c-1.244-0.572-2.221-1.355-2.929-2.354c-0.708-0.998-1.062-2.074-1.062-3.23h4.85
	c0.047,0.908,0.383,1.604,1.008,2.088c0.625,0.483,1.463,0.726,2.513,0.726c0.979,0,1.719-0.187,2.221-0.558
	S145.138,22.849,145.138,22.249"/>
<path fill="#349DFF" d="M160.051,23.771c0.939,0,1.702-0.26,2.29-0.78c0.587-0.52,0.892-1.21,0.915-2.07h4.774
	c-0.013,1.299-0.365,2.486-1.058,3.564c-0.692,1.08-1.64,1.918-2.843,2.514c-1.204,0.597-2.533,0.895-3.989,0.895
	c-2.724,0-4.872-0.871-6.445-2.61c-1.574-1.741-2.36-4.145-2.36-7.213v-0.337c0-2.949,0.78-5.303,2.343-7.062
	c1.562-1.758,3.703-2.637,6.427-2.637c2.384,0,4.294,0.681,5.733,2.045c1.438,1.362,2.168,3.176,2.193,5.443h-4.774
	c-0.023-0.997-0.328-1.807-0.915-2.43s-1.362-0.933-2.325-0.933c-1.186,0-2.081,0.435-2.686,1.303
	c-0.604,0.869-0.907,2.279-0.907,4.228v0.531c0,1.973,0.299,3.391,0.898,4.254C157.92,23.339,158.829,23.771,160.051,23.771"/>
<path fill="#349DFF" d="M175.317,27.541h-5.107V8.39h5.107V27.541z M169.911,3.434c0-0.766,0.255-1.399,0.765-1.894
	c0.511-0.495,1.207-0.743,2.087-0.743c0.87,0,1.562,0.248,2.077,0.743c0.518,0.495,0.775,1.127,0.775,1.894
	c0,0.778-0.261,1.417-0.784,1.912c-0.522,0.495-1.212,0.742-2.069,0.742c-0.857,0-1.547-0.247-2.07-0.742
	C170.171,4.851,169.911,4.212,169.911,3.434"/>
<path fill="#349DFF" d="M186.05,12.16c-1.01,0-1.829,0.343-2.456,1.03c-0.628,0.688-1.03,1.671-1.206,2.952h7.08v-0.41
	c-0.024-1.137-0.33-2.018-0.917-2.64C187.964,12.471,187.131,12.16,186.05,12.16 M186.631,27.894c-2.794,0-5.069-0.861-6.823-2.584
	c-1.756-1.724-2.633-4.018-2.633-6.884V17.93c0-1.923,0.37-3.643,1.109-5.16c0.739-1.516,1.788-2.684,3.144-3.504
	c1.355-0.82,2.902-1.23,4.64-1.23c2.607,0,4.658,0.825,6.155,2.478c1.497,1.652,2.246,3.994,2.246,7.025v2.088h-12.135
	c0.165,1.252,0.66,2.254,1.49,3.009c0.826,0.755,1.874,1.134,3.141,1.134c1.961,0,3.494-0.715,4.597-2.143l2.501,2.814
	c-0.764,1.085-1.796,1.932-3.1,2.539C189.66,27.59,188.216,27.894,186.631,27.894"/>
<path fill="#349DFF" d="M201.076,8.39l0.159,2.212c1.358-1.709,3.179-2.565,5.462-2.565c2.014,0,3.513,0.596,4.499,1.787
	c0.982,1.191,1.486,2.975,1.509,5.345v12.373h-5.076V15.264c0-1.088-0.235-1.877-0.704-2.369c-0.469-0.489-1.247-0.735-2.335-0.735
	c-1.43,0-2.5,0.615-3.215,1.846v13.536h-5.075V8.39H201.076L201.076,8.39z"/>
<path fill="#349DFF" d="M231.508,27.541H226.4V8.39h5.107V27.541z M226.1,3.434c0-0.766,0.256-1.399,0.767-1.894
	c0.509-0.495,1.207-0.743,2.086-0.743c0.868,0,1.562,0.248,2.078,0.743c0.518,0.495,0.775,1.127,0.775,1.894
	c0,0.778-0.262,1.417-0.785,1.912c-0.521,0.495-1.211,0.742-2.068,0.742s-1.545-0.247-2.07-0.742
	C226.362,4.851,226.1,4.212,226.1,3.434"/>
<path fill="#349DFF" d="M252.306,27.541h-5.106V8.39h5.106V27.541L252.306,27.541z M246.899,3.434c0-0.766,0.255-1.399,0.766-1.894
	c0.51-0.495,1.207-0.743,2.086-0.743c0.869,0,1.562,0.248,2.077,0.743c0.518,0.495,0.774,1.127,0.774,1.894
	c0,0.778-0.26,1.417-0.782,1.912s-1.212,0.742-2.069,0.742c-0.856,0-1.546-0.247-2.069-0.742
	C247.161,4.851,246.899,4.212,246.899,3.434"/>
<path fill="#349DFF" d="M262.847,23.771c0.94,0,1.703-0.26,2.289-0.78c0.589-0.52,0.893-1.21,0.917-2.07h4.771
	c-0.012,1.299-0.365,2.486-1.057,3.564c-0.694,1.08-1.641,1.918-2.844,2.514c-1.203,0.597-2.534,0.895-3.988,0.895
	c-2.723,0-4.871-0.871-6.443-2.61c-1.574-1.741-2.361-4.145-2.361-7.213v-0.337c0-2.949,0.779-5.303,2.342-7.062
	c1.561-1.758,3.704-2.637,6.426-2.637c2.385,0,4.295,0.681,5.732,2.045c1.438,1.362,2.17,3.176,2.192,5.443h-4.771
	c-0.024-0.997-0.329-1.807-0.917-2.43c-0.586-0.623-1.361-0.933-2.324-0.933c-1.186,0-2.08,0.435-2.686,1.303
	c-0.604,0.869-0.906,2.279-0.906,4.228v0.531c0,1.973,0.297,3.391,0.898,4.254C260.716,23.339,261.626,23.771,262.847,23.771"/>
<path fill="#349DFF" d="M290.238,22.352c0-0.623-0.309-1.117-0.93-1.476c-0.619-0.361-1.612-0.683-2.983-0.966
	c-4.553-0.955-6.83-2.891-6.83-5.805c0-1.699,0.704-3.118,2.115-4.256c1.408-1.139,3.253-1.708,5.529-1.708
	c2.43,0,4.375,0.573,5.833,1.717c1.457,1.144,2.186,2.631,2.186,4.459h-5.116c0-0.73-0.236-1.334-0.708-1.814
	c-0.473-0.479-1.21-0.717-2.212-0.717c-0.861,0-1.529,0.196-2.001,0.584c-0.473,0.389-0.708,0.884-0.708,1.487
	c0,0.565,0.269,1.023,0.808,1.372c0.534,0.347,1.442,0.648,2.717,0.902c1.273,0.255,2.347,0.54,3.221,0.859
	c2.702,0.992,4.054,2.707,4.054,5.149c0,1.749-0.75,3.161-2.249,4.239c-1.495,1.08-3.431,1.619-5.803,1.619
	c-1.604,0-3.029-0.285-4.275-0.857c-1.244-0.574-2.22-1.356-2.929-2.354c-0.707-0.999-1.061-2.074-1.061-3.23h4.849
	c0.047,0.909,0.383,1.605,1.007,2.088c0.625,0.483,1.466,0.726,2.514,0.726c0.979,0,1.72-0.186,2.223-0.557
	C289.987,23.442,290.238,22.956,290.238,22.352"/>
<path fill="#349DFF" d="M301.554,18.256c0,1.82,0.341,3.213,1.024,4.176s1.663,1.444,2.938,1.444c1.239,0,2.206-0.476,2.903-1.427
	c0.696-0.953,1.047-2.473,1.047-4.564c0-1.783-0.349-3.167-1.047-4.148c-0.695-0.981-1.676-1.471-2.938-1.471
	c-1.252,0-2.221,0.486-2.904,1.462C301.896,14.702,301.554,16.211,301.554,18.256 M296.439,17.893c0-1.898,0.366-3.593,1.096-5.08
	c0.732-1.486,1.786-2.636,3.159-3.451c1.375-0.813,2.971-1.222,4.789-1.222c2.582,0,4.693,0.791,6.327,2.373
	c1.635,1.582,2.546,3.729,2.734,6.442l0.035,1.31c0,2.938-0.82,5.295-2.459,7.071C310.479,27.113,308.279,28,305.52,28
	s-4.964-0.885-6.609-2.656c-1.647-1.768-2.47-4.176-2.47-7.22L296.439,17.893L296.439,17.893z"/>
<path fill="#349DFF" d="M317.573,27.645V12.247h-2.871V8.493h2.871V6.866c0-2.148,0.623-3.814,1.864-5
	c1.241-1.188,2.979-1.779,5.215-1.779c0.716,0,1.588,0.117,2.623,0.351l-0.056,3.933c-0.427-0.106-0.95-0.16-1.566-0.16
	c-1.941,0-2.907,0.911-2.907,2.731v1.551h3.835v3.754h-3.835v15.398H317.573L317.573,27.645z"/>
<path fill="#349DFF" d="M336.08,3.786v4.707h3.301v3.754h-3.301v9.558c0,0.707,0.137,1.215,0.412,1.521
	c0.272,0.307,0.796,0.459,1.568,0.459c0.57,0,1.075-0.041,1.516-0.123v3.875c-1.011,0.307-2.052,0.459-3.12,0.459
	c-3.613,0-5.456-1.811-5.527-5.434V12.245h-2.817V8.492h2.817V3.784L336.08,3.786L336.08,3.786z"/>
<polygon fill="#349DFF" points="362.322,8.494 359.733,20.69 356.141,8.494 352.331,8.494 348.722,20.671 346.151,8.494 
	341.064,8.494 346.096,27.645 350.49,27.645 354.228,15.592 357.965,27.645 362.375,27.645 367.406,8.494 "/>
<path fill="#349DFF" d="M375.197,24.088c0.764,0,1.464-0.17,2.106-0.505c0.642-0.338,1.117-0.788,1.425-1.354v-3.293h-1.925
	c-2.58,0-3.953,0.886-4.121,2.655l-0.017,0.302c0,0.637,0.226,1.162,0.679,1.575C373.795,23.881,374.414,24.088,375.197,24.088
	 M379.46,27.645c-0.236-0.459-0.409-1.032-0.517-1.717c-1.249,1.381-2.871,2.07-4.867,2.07c-1.892,0-3.456-0.541-4.698-1.629
	c-1.242-1.085-1.863-2.453-1.863-4.104c0-2.03,0.758-3.589,2.272-4.673c1.518-1.086,3.706-1.635,6.571-1.646h2.371v-1.097
	c0-0.884-0.228-1.592-0.688-2.123c-0.458-0.53-1.179-0.796-2.167-0.796c-0.866,0-1.548,0.207-2.041,0.621
	c-0.493,0.412-0.739,0.979-0.739,1.698h-5.153c0-1.109,0.342-2.135,1.033-3.081c0.689-0.943,1.663-1.683,2.925-2.22
	c1.259-0.537,2.675-0.807,4.244-0.807c2.377,0,4.266,0.594,5.662,1.778c1.396,1.186,2.095,2.853,2.095,5v8.301
	c0.012,1.817,0.269,3.19,0.765,4.123v0.302H379.46L379.46,27.645z"/>
<path fill="#349DFF" d="M397.572,13.291c-0.701-0.094-1.319-0.141-1.855-0.141c-1.949,0-3.228,0.655-3.833,1.965v12.53h-5.153V8.494
	h4.868l0.144,2.284c1.033-1.758,2.466-2.638,4.297-2.638c0.57,0,1.104,0.078,1.604,0.23L397.572,13.291z"/>
<path fill="#349DFF" d="M407.356,12.265c-1.023,0-1.852,0.342-2.487,1.03c-0.635,0.688-1.043,1.67-1.222,2.952h7.168v-0.409
	c-0.022-1.138-0.331-2.017-0.929-2.64C409.293,12.576,408.449,12.265,407.356,12.265 M407.944,27.999
	c-2.829,0-5.132-0.859-6.909-2.583c-1.776-1.723-2.665-4.017-2.665-6.884v-0.495c0-1.923,0.374-3.644,1.122-5.16
	c0.746-1.518,1.81-2.684,3.184-3.504s2.939-1.231,4.697-1.231c2.641,0,4.717,0.826,6.232,2.479c1.517,1.652,2.273,3.993,2.273,7.024
	v2.088h-12.287c0.167,1.252,0.669,2.256,1.508,3.01c0.836,0.755,1.898,1.133,3.183,1.133c1.985,0,3.537-0.714,4.655-2.143
	l2.53,2.815c-0.773,1.087-1.819,1.933-3.14,2.54C411.012,27.695,409.551,27.999,407.944,27.999"/>
<path fill="#349DFF" d="M17.72,15.421v11.602c3.037-0.188,5.45-2.718,5.45-5.801S20.756,15.609,17.72,15.421 M17.357,27.757
	c-0.2,0-0.361-0.161-0.361-0.361V15.049c0-0.2,0.162-0.361,0.361-0.361c3.603,0,6.535,2.93,6.535,6.534
	C23.893,24.825,20.96,27.757,17.357,27.757"/>
<path fill="#349DFF" d="M9.193,27.034h5.481V15.387H9.193V27.034L9.193,27.034z M15.036,27.757H8.832
	c-0.2,0-0.362-0.161-0.362-0.361v-12.37c0-0.2,0.162-0.361,0.362-0.361h6.204c0.2,0,0.362,0.161,0.362,0.361v12.37
	C15.398,27.596,15.236,27.757,15.036,27.757"/>
<path fill="#349DFF" d="M17.72,1.062v11.602c3.037-0.188,5.45-2.718,5.45-5.801S20.756,1.249,17.72,1.062 M17.357,13.397
	c-0.2,0-0.361-0.162-0.361-0.362V0.688c0-0.2,0.162-0.362,0.361-0.362c3.603,0,6.535,2.931,6.535,6.535
	C23.893,10.465,20.96,13.397,17.357,13.397"/>
<path fill="#349DFF" d="M9.193,12.674h5.481V1.027H9.193V12.674L9.193,12.674z M15.036,13.397H8.832c-0.2,0-0.362-0.162-0.362-0.362
	V0.666c0-0.2,0.162-0.362,0.362-0.362h6.204c0.2,0,0.362,0.162,0.362,0.362v12.369C15.398,13.235,15.236,13.397,15.036,13.397"/>
<path fill="#349DFF" d="M0.723,27.012h5.482V1.027H0.723V27.012z M6.566,27.735H0.361c-0.2,0-0.361-0.162-0.361-0.361V0.666
	c0-0.2,0.162-0.362,0.361-0.362h6.205c0.199,0,0.361,0.162,0.361,0.362v26.708C6.927,27.573,6.765,27.735,6.566,27.735"/>
<path fill="#349DFF" d="M241.229,6.837c0-1.82,1.014-2.699,2.929-2.699c0.327,0,0.658,0.079,0.931,0.079h0.014l0.216-3.946
	C244.549,0.121,243.79,0,243.224,0c-2.207,0-4.072,0.585-5.3,1.771s-1.99,2.846-1.99,4.993v1.935h-2.444v3.667h2.444v15.481h5.297
	V12.364h4.074V8.697h-4.074L241.229,6.837L241.229,6.837z"/>
<path fill="#349DFF" d="M223.139,23.682c-0.765,0-1.237-0.152-1.51-0.459c-0.269-0.307-0.361-0.813-0.361-1.521v-9.337h3.666V8.697
	h-3.666V3.401h-5.705v5.296h-2.035v3.667h2.035V22.46c0,3.622,2.306,5.435,5.874,5.435c1.057,0,1.867-0.154,3.496-0.461V23.56
	C224.119,23.64,223.699,23.682,223.139,23.682"/>
</svg>
