<?xml version="1.0" encoding="utf-8"?>
<!-- Generator: Adobe Illustrator 15.0.0, SVG Export Plug-In  -->
<!DOCTYPE svg PUBLIC "-//W3C//DTD SVG 1.1//EN" "http://www.w3.org/Graphics/SVG/1.1/DTD/svg11.dtd" [
	<!ENTITY ns_flows "http://ns.adobe.com/Flows/1.0/">
]>
<svg version="1.1"
	 xmlns="http://www.w3.org/2000/svg" xmlns:xlink="http://www.w3.org/1999/xlink" xmlns:a="http://ns.adobe.com/AdobeSVGViewerExtensions/3.0/"
	 x="0px" y="0px" width="737px" height="50px" viewBox="0 0 737 50" overflow="visible" enable-background="new 0 0 737 50"
	 xml:space="preserve">
<defs>
</defs>
<path display="none" fill="#FFFFFF" d="M83.045,31.49c0-3.438-0.543-5.946-1.629-7.528c-1.085-1.583-2.706-2.373-4.856-2.373
	c-2.884,0-4.869,1.184-5.956,3.552v13.422c1.107,2.392,3.113,3.585,6.017,3.585c2.926,0,4.848-1.446,5.766-4.338
	C82.827,36.426,83.045,34.319,83.045,31.49 M92.101,32.182c0,5.435-1.159,9.667-3.478,12.708c-2.32,3.04-5.558,4.56-9.714,4.56
	c-3.679,0-6.614-1.409-8.808-4.229l-0.407,3.604h-8.147V0.686h9.056v17.269c2.09-2.444,4.835-3.667,8.243-3.667
	c4.135,0,7.379,1.52,9.729,4.56c2.352,3.04,3.526,7.317,3.526,12.834V32.182L92.101,32.182z"/>
<path display="none" fill="#FFFFFF" d="M110.199,21.589c-1.796,0-3.255,0.608-4.372,1.826c-1.118,1.217-1.834,2.958-2.146,5.226
	h12.599v-0.725c-0.043-2.015-0.586-3.572-1.631-4.674S112.121,21.589,110.199,21.589 M111.232,49.447
	c-4.973,0-9.021-1.523-12.144-4.575c-3.124-3.049-4.684-7.113-4.684-12.19v-0.876c0-3.406,0.658-6.452,1.974-9.138
	c1.316-2.685,3.18-4.752,5.594-6.203c2.413-1.453,5.165-2.18,8.257-2.18c4.64,0,8.289,1.463,10.953,4.389
	c2.664,2.925,3.996,7.07,3.996,12.439v3.697h-21.594c0.294,2.216,1.175,3.991,2.649,5.328c1.473,1.338,3.338,2.006,5.593,2.006
	c3.489,0,6.215-1.263,8.179-3.791l4.452,4.981c-1.359,1.924-3.198,3.421-5.517,4.498C116.625,48.91,114.053,49.447,111.232,49.447"
	/>
<path display="none" fill="#FFFFFF" d="M139.557,6.577v8.336h6.822v6.645h-6.822V38.48c0,1.254,0.24,2.152,0.72,2.694
	c0.48,0.545,1.401,0.815,2.757,0.815c1.004,0,1.893-0.073,2.665-0.222v6.865c-1.775,0.543-3.604,0.812-5.485,0.812
	c-6.352,0-9.589-3.206-9.713-9.621v-18.27h-4.952v-6.644h4.951V6.576L139.557,6.577L139.557,6.577z"/>
<path display="none" fill="#FFFFFF" d="M162.718,6.577v8.336h5.798v6.645h-5.798V38.48c0,1.254,0.239,2.152,0.72,2.694
	c0.48,0.545,1.399,0.815,2.757,0.815c1.004,0,1.89-0.073,2.664-0.222v6.865c-1.775,0.543-3.604,0.812-5.482,0.812
	c-6.352,0-9.592-3.206-9.716-9.621v-18.27h-4.951v-6.644h4.951V6.576L162.718,6.577L162.718,6.577z"/>
<path display="none" fill="#FFFFFF" d="M186.335,21.589c-1.795,0-3.252,0.608-4.371,1.826c-1.118,1.217-1.834,2.958-2.147,5.226
	h12.597v-0.725c-0.042-2.015-0.583-3.572-1.628-4.674S188.257,21.589,186.335,21.589 M187.37,49.447
	c-4.974,0-9.02-1.523-12.145-4.575c-3.124-3.049-4.685-7.113-4.685-12.19v-0.876c0-3.406,0.659-6.452,1.974-9.138
	c1.317-2.685,3.182-4.752,5.594-6.203c2.414-1.453,5.167-2.18,8.257-2.18c4.639,0,8.29,1.463,10.954,4.389
	c2.663,2.925,3.996,7.07,3.996,12.439v3.697h-21.592c0.293,2.216,1.174,3.991,2.647,5.328c1.475,1.338,3.338,2.006,5.595,2.006
	c3.489,0,6.215-1.263,8.179-3.791l4.451,4.981c-1.359,1.924-3.197,3.421-5.517,4.498C192.761,48.91,190.191,49.447,187.37,49.447"/>
<path display="none" fill="#FFFFFF" d="M223.904,23.405c-1.233-0.167-2.317-0.25-3.258-0.25c-3.426,0-5.674,1.158-6.737,3.479
	v22.188h-9.059v-33.91h8.555l0.252,4.043c1.816-3.112,4.336-4.669,7.553-4.669c1,0,1.942,0.137,2.82,0.408L223.904,23.405z"/>
<path display="none" fill="#FFFFFF" d="M257.487,39.394c0-1.105-0.548-1.979-1.646-2.617c-1.095-0.636-2.857-1.206-5.281-1.708
	c-8.064-1.692-12.095-5.118-12.095-10.279c0-3.008,1.247-5.521,3.744-7.537c2.495-2.018,5.761-3.022,9.792-3.022
	c4.303,0,7.746,1.014,10.327,3.039c2.58,2.026,3.87,4.66,3.87,7.897h-9.058c0-1.296-0.417-2.365-1.253-3.213
	c-0.835-0.847-2.142-1.271-3.917-1.271c-1.526,0-2.706,0.345-3.542,1.035c-0.835,0.688-1.254,1.565-1.254,2.632
	c0,1.002,0.474,1.812,1.427,2.43c0.95,0.616,2.555,1.148,4.811,1.598c2.256,0.449,4.157,0.956,5.703,1.521
	c4.786,1.755,7.178,4.796,7.178,9.12c0,3.092-1.328,5.594-3.981,7.506c-2.651,1.912-6.079,2.868-10.278,2.868
	c-2.842,0-5.365-0.507-7.569-1.521c-2.203-1.015-3.933-2.402-5.186-4.167c-1.253-1.768-1.88-3.672-1.88-5.721h8.587
	c0.083,1.608,0.678,2.841,1.785,3.697s2.591,1.285,4.45,1.285c1.734,0,3.044-0.33,3.933-0.988
	C257.043,41.321,257.487,40.458,257.487,39.394"/>
<path display="none" fill="#FFFFFF" d="M283.892,42.091c1.663,0,3.014-0.46,4.054-1.382c1.04-0.919,1.579-2.142,1.619-3.666h8.454
	c-0.022,2.3-0.646,4.403-1.873,6.313c-1.226,1.912-2.904,3.396-5.035,4.45c-2.132,1.056-4.485,1.583-7.063,1.583
	c-4.823,0-8.627-1.541-11.412-4.621c-2.787-3.083-4.179-7.339-4.179-12.771V31.4c0-5.223,1.382-9.391,4.148-12.504
	c2.765-3.112,6.557-4.669,11.38-4.669c4.22,0,7.603,1.206,10.15,3.62c2.546,2.412,3.84,5.624,3.883,9.638h-8.453
	c-0.041-1.765-0.58-3.199-1.62-4.302c-1.04-1.103-2.412-1.652-4.117-1.652c-2.1,0-3.684,0.77-4.756,2.306
	c-1.07,1.539-1.605,4.035-1.605,7.486v0.94c0,3.495,0.529,6.006,1.59,7.534C280.119,41.326,281.729,42.091,283.892,42.091"/>
<path display="none" fill="#FFFFFF" d="M310.924,48.765h-9.044V14.855h9.044V48.765z M301.351,6.081
	c0-1.357,0.452-2.478,1.355-3.354c0.905-0.877,2.137-1.315,3.696-1.315c1.539,0,2.765,0.438,3.678,1.315
	c0.916,0.877,1.373,1.996,1.373,3.354c0,1.378-0.462,2.508-1.388,3.385s-2.146,1.315-3.663,1.315c-1.519,0-2.739-0.438-3.666-1.315
	C301.812,8.589,301.351,7.459,301.351,6.081"/>
<path display="none" fill="#FFFFFF" d="M329.927,21.531c-1.788,0-3.237,0.607-4.349,1.824c-1.112,1.218-1.824,2.958-2.135,5.227
	h12.535v-0.726c-0.043-2.014-0.584-3.572-1.623-4.674C333.316,22.082,331.841,21.531,329.927,21.531 M330.956,49.391
	c-4.947,0-8.976-1.524-12.082-4.575c-3.109-3.051-4.662-7.113-4.662-12.189v-0.877c0-3.406,0.654-6.452,1.964-9.137
	c1.309-2.685,3.165-4.752,5.566-6.205c2.399-1.451,5.138-2.178,8.215-2.178c4.617,0,8.247,1.461,10.898,4.388
	c2.65,2.925,3.977,7.072,3.977,12.44v3.696h-21.486c0.292,2.218,1.169,3.991,2.639,5.328c1.463,1.338,3.318,2.008,5.562,2.008
	c3.473,0,6.188-1.267,8.14-3.795l4.429,4.983c-1.353,1.922-3.181,3.422-5.488,4.497C336.318,48.853,333.763,49.391,330.956,49.391"
	/>
<path display="none" fill="#FFFFFF" d="M356.532,14.855l0.281,3.917c2.404-3.027,5.628-4.543,9.672-4.543
	c3.566,0,6.22,1.055,7.964,3.164c1.74,2.109,2.633,5.268,2.672,9.464v21.907h-8.986V27.028c0-1.928-0.417-3.324-1.246-4.195
	c-0.83-0.867-2.208-1.302-4.135-1.302c-2.532,0-4.428,1.089-5.693,3.268v23.966h-8.986V14.855H356.532L356.532,14.855z"/>
<path display="none" fill="#FFFFFF" d="M410.416,48.765h-9.043V14.855h9.043V48.765z M400.841,6.081
	c0-1.357,0.453-2.478,1.357-3.354c0.901-0.877,2.137-1.315,3.694-1.315c1.537,0,2.765,0.438,3.679,1.315
	c0.916,0.877,1.373,1.996,1.373,3.354c0,1.378-0.463,2.508-1.39,3.385c-0.924,0.877-2.145,1.315-3.662,1.315
	c-1.52,0-2.737-0.438-3.664-1.315C401.306,8.589,400.841,7.459,400.841,6.081"/>
<path display="none" fill="#FFFFFF" d="M447.242,48.765h-9.043V14.855h9.043V48.765L447.242,48.765z M437.669,6.081
	c0-1.357,0.451-2.478,1.355-3.354c0.903-0.876,2.137-1.315,3.694-1.315c1.539,0,2.765,0.438,3.681,1.315
	c0.914,0.877,1.368,1.996,1.368,3.354c0,1.378-0.459,2.508-1.385,3.385c-0.924,0.877-2.146,1.315-3.664,1.315
	c-1.516,0-2.737-0.438-3.664-1.315C438.132,8.589,437.669,7.459,437.669,6.081"/>
<path display="none" fill="#FFFFFF" d="M465.906,42.091c1.664,0,3.016-0.46,4.053-1.382c1.043-0.919,1.58-2.142,1.623-3.666h8.449
	c-0.021,2.3-0.646,4.403-1.871,6.313c-1.228,1.912-2.904,3.396-5.035,4.45c-2.131,1.056-4.486,1.583-7.061,1.583
	c-4.824,0-8.628-1.541-11.412-4.621c-2.787-3.083-4.181-7.339-4.181-12.771V31.4c0-5.223,1.384-9.391,4.146-12.504
	c2.764-3.112,6.559-4.669,11.379-4.669c4.223,0,7.604,1.206,10.15,3.62c2.547,2.412,3.842,5.624,3.881,9.638h-8.447
	c-0.043-1.765-0.582-3.199-1.623-4.302c-1.037-1.103-2.41-1.652-4.115-1.652c-2.1,0-3.684,0.77-4.756,2.306
	c-1.067,1.539-1.604,4.035-1.604,7.486v0.94c0,3.495,0.526,6.006,1.59,7.534C462.134,41.326,463.744,42.091,465.906,42.091"/>
<path display="none" fill="#FFFFFF" d="M514.406,39.578c0-1.104-0.547-1.978-1.646-2.614c-1.096-0.639-2.854-1.207-5.281-1.71
	c-8.062-1.691-12.094-5.118-12.094-10.278c0-3.009,1.246-5.521,3.744-7.537c2.494-2.017,5.76-3.023,9.791-3.023
	c4.303,0,7.746,1.014,10.328,3.04c2.58,2.025,3.869,4.658,3.869,7.896h-9.058c0-1.294-0.418-2.363-1.254-3.212
	c-0.836-0.847-2.143-1.27-3.916-1.27c-1.526,0-2.707,0.346-3.543,1.034c-0.836,0.689-1.254,1.565-1.254,2.633
	c0,1.001,0.476,1.812,1.429,2.429c0.948,0.615,2.555,1.147,4.811,1.597c2.256,0.451,4.156,0.956,5.703,1.521
	c4.785,1.757,7.178,4.795,7.178,9.119c0,3.095-1.328,5.596-3.979,7.507c-2.65,1.912-6.078,2.867-10.277,2.867
	c-2.842,0-5.365-0.506-7.57-1.521c-2.203-1.014-3.932-2.4-5.186-4.168c-1.252-1.767-1.879-3.673-1.879-5.719h8.586
	c0.082,1.61,0.678,2.842,1.785,3.696c1.104,0.857,2.592,1.285,4.448,1.285c1.734,0,3.045-0.328,3.935-0.986
	C513.962,41.508,514.406,40.646,514.406,39.578"/>
<path display="none" fill="#FFFFFF" d="M534.441,32.325c0,3.224,0.604,5.688,1.815,7.394s2.945,2.558,5.203,2.558
	c2.193,0,3.906-0.843,5.141-2.527c1.232-1.686,1.853-4.377,1.853-8.082c0-3.158-0.617-5.606-1.853-7.345
	c-1.231-1.736-2.967-2.604-5.2-2.604c-2.218,0-3.933,0.861-5.144,2.588C535.048,26.032,534.441,28.705,534.441,32.325
	 M525.386,31.684c0-3.363,0.648-6.362,1.941-8.995c1.297-2.631,3.162-4.668,5.594-6.109c2.435-1.441,5.26-2.163,8.479-2.163
	c4.573,0,8.311,1.4,11.202,4.2c2.896,2.801,4.509,6.602,4.843,11.406l0.062,2.319c0,5.202-1.453,9.375-4.354,12.521
	c-2.906,3.145-6.802,4.716-11.689,4.716s-8.789-1.566-11.703-4.701c-2.916-3.132-4.373-7.396-4.373-12.785L525.386,31.684
	L525.386,31.684z"/>
<path display="none" fill="#FFFFFF" d="M562.808,48.95V21.686h-5.084V15.04h5.084v-2.882c0-3.803,1.101-6.754,3.3-8.854
	c2.198-2.103,5.276-3.149,9.233-3.149c1.267,0,2.812,0.208,4.644,0.621l-0.097,6.964c-0.756-0.188-1.684-0.283-2.774-0.283
	c-3.437,0-5.148,1.613-5.148,4.836v2.747h6.791v6.646h-6.791v27.266L562.808,48.95L562.808,48.95z"/>
<path display="none" fill="#FFFFFF" d="M595.576,6.704v8.335h5.844v6.646h-5.844v16.924c0,1.252,0.242,2.151,0.729,2.694
	c0.482,0.544,1.41,0.813,2.777,0.813c1.01,0,1.904-0.072,2.684-0.219v6.861c-1.789,0.545-3.633,0.815-5.524,0.815
	c-6.398,0-9.662-3.207-9.787-9.621v-18.27h-4.988v-6.646h4.988V6.703L595.576,6.704L595.576,6.704z"/>
<polygon display="none" fill="#FFFFFF" points="642.041,15.04 637.457,36.635 631.097,15.04 624.351,15.04 617.96,36.603 
	613.408,15.04 604.402,15.04 613.31,48.95 621.091,48.95 627.708,27.608 634.326,48.95 642.136,48.95 651.044,15.04 "/>
<path display="none" fill="#FFFFFF" d="M664.839,42.651c1.351,0,2.592-0.299,3.729-0.893c1.137-0.598,1.979-1.396,2.524-2.398v-5.83
	h-3.41c-4.567,0-7,1.567-7.295,4.701l-0.03,0.533c0,1.128,0.399,2.059,1.2,2.79C662.357,42.286,663.451,42.651,664.839,42.651
	 M672.386,48.95c-0.418-0.813-0.725-1.828-0.914-3.04c-2.211,2.444-5.084,3.667-8.619,3.667c-3.348,0-6.118-0.96-8.319-2.885
	c-2.199-1.922-3.299-4.344-3.299-7.269c0-3.595,1.342-6.354,4.024-8.273c2.687-1.922,6.562-2.894,11.635-2.916h4.199v-1.942
	c0-1.565-0.403-2.819-1.217-3.759c-0.811-0.94-2.088-1.41-3.838-1.41c-1.533,0-2.74,0.365-3.613,1.098
	c-0.873,0.729-1.309,1.733-1.309,3.007h-9.125c0-1.963,0.606-3.779,1.83-5.454c1.221-1.67,2.944-2.98,5.178-3.932
	c2.229-0.951,4.736-1.427,7.516-1.427c4.209,0,7.552,1.05,10.025,3.148c2.473,2.1,3.709,5.052,3.709,8.854v14.698
	c0.02,3.218,0.475,5.648,1.354,7.301v0.533L672.386,48.95L672.386,48.95z"/>
<path display="none" fill="#FFFFFF" d="M704.457,23.534c-1.242-0.167-2.336-0.25-3.285-0.25c-3.451,0-5.715,1.16-6.787,3.479v22.188
	h-9.125v-33.91h8.619l0.254,4.043c1.83-3.113,4.367-4.67,7.609-4.67c1.01,0,1.955,0.137,2.84,0.408L704.457,23.534z"/>
<path display="none" fill="#FFFFFF" d="M721.781,21.718c-1.812,0-3.279,0.606-4.404,1.824c-1.125,1.217-1.848,2.958-2.164,5.226
	h12.693v-0.724c-0.041-2.015-0.588-3.572-1.644-4.674C725.21,22.269,723.716,21.718,721.781,21.718 M722.822,49.577
	c-5.01,0-9.088-1.524-12.234-4.575c-3.146-3.05-4.719-7.113-4.719-12.19v-0.876c0-3.405,0.662-6.452,1.988-9.136
	c1.321-2.686,3.202-4.752,5.635-6.205c2.434-1.452,5.205-2.179,8.317-2.179c4.677,0,8.353,1.462,11.037,4.389
	c2.685,2.925,4.025,7.071,4.025,12.439v3.697h-21.756c0.295,2.216,1.184,3.992,2.67,5.329c1.481,1.336,3.361,2.006,5.635,2.006
	c3.514,0,6.262-1.265,8.242-3.794l4.481,4.984c-1.37,1.924-3.221,3.421-5.559,4.498C728.253,49.038,725.666,49.577,722.822,49.577"
	/>
<path display="none" fill="#4DC7ED" d="M31.234,25.507c-0.628,0-1.14,0.511-1.14,1.14v21.862c0,0.628,0.511,1.14,1.14,1.14
	c3.219,0,6.249-1.257,8.532-3.539c2.282-2.282,3.539-5.312,3.539-8.531C43.304,30.922,37.89,25.507,31.234,25.507z M41.025,37.577
	c0,4.982-3.758,9.155-8.65,9.726v-19.45C37.267,28.422,41.025,32.595,41.025,37.577z"/>
<path display="none" fill="#4DC7ED" d="M31.234,24.222c3.219,0,6.249-1.257,8.532-3.539c2.282-2.283,3.539-5.313,3.539-8.532
	c0-6.656-5.415-12.07-12.07-12.07c-0.628,0-1.14,0.512-1.14,1.141v21.861C30.094,23.71,30.605,24.222,31.234,24.222z M32.375,21.875
	V2.426c4.892,0.568,8.65,4.741,8.65,9.724C41.025,17.133,37.267,21.306,32.375,21.875z"/>
<path display="none" fill="#5793CE" d="M27.124,25.467H16.138c-0.629,0-1.14,0.511-1.14,1.14v21.902c0,0.628,0.511,1.14,1.14,1.14
	h10.986c0.629,0,1.14-0.512,1.14-1.14V26.606C28.264,25.978,27.753,25.467,27.124,25.467z M25.984,27.746v19.622h-8.706V27.746
	H25.984z"/>
<path display="none" fill="#5793CE" d="M27.124,0.039H16.138c-0.629,0-1.14,0.512-1.14,1.141v21.901c0,0.628,0.511,1.141,1.14,1.141
	h10.986c0.629,0,1.14-0.512,1.14-1.141V1.18C28.264,0.551,27.753,0.039,27.124,0.039z M25.984,2.319V21.94h-8.706V2.319H25.984z"/>
<path display="none" fill="#2C2C76" d="M12.126,0.039H1.14C0.511,0.039,0,0.551,0,1.18v47.291c0,0.628,0.511,1.14,1.14,1.14h10.986
	c0.629,0,1.14-0.512,1.14-1.14V1.18C13.266,0.551,12.755,0.039,12.126,0.039z M10.986,2.319v45.01H2.28V2.319H10.986z"/>
<path display="none" fill="#FFFFFF" d="M427.63,12.106c0-3.224,1.795-4.778,5.185-4.778c0.579,0,1.166,0.139,1.649,0.139h0.023
	l0.383-6.986C433.507,0.214,432.163,0,431.161,0c-3.908,0-7.211,1.035-9.385,3.135c-2.173,2.1-3.523,5.038-3.523,8.84v3.427h-4.328
	v6.492h4.328v27.412h9.379V21.893h7.213V15.4h-7.213v-3.294H427.63z"/>
<path display="none" fill="#FFFFFF" d="M395.597,41.934c-1.354,0-2.19-0.271-2.672-0.814c-0.477-0.543-0.641-1.44-0.641-2.693
	V21.894h6.492V15.4h-6.492V6.023h-10.101V15.4h-3.604v6.493h3.604V39.77c0,6.415,4.081,9.622,10.4,9.622
	c1.871,0,3.307-0.271,6.191-0.814v-6.861C397.333,41.858,396.591,41.934,395.597,41.934"/>
<path fill="#349DFF" d="M83.045,31.49c0-3.438-0.543-5.946-1.629-7.528c-1.085-1.583-2.706-2.373-4.856-2.373
	c-2.884,0-4.869,1.184-5.956,3.552v13.422c1.107,2.392,3.113,3.585,6.017,3.585c2.926,0,4.848-1.446,5.766-4.338
	C82.827,36.426,83.045,34.319,83.045,31.49 M92.101,32.182c0,5.435-1.159,9.667-3.478,12.708c-2.32,3.04-5.558,4.56-9.714,4.56
	c-3.679,0-6.614-1.409-8.808-4.229l-0.407,3.604h-8.147V0.686h9.056v17.269c2.09-2.444,4.835-3.667,8.243-3.667
	c4.135,0,7.379,1.52,9.729,4.56c2.352,3.04,3.526,7.317,3.526,12.834V32.182L92.101,32.182z"/>
<path fill="#349DFF" d="M110.199,21.589c-1.796,0-3.255,0.608-4.372,1.826c-1.118,1.217-1.834,2.958-2.146,5.226h12.599v-0.725
	c-0.043-2.015-0.586-3.572-1.631-4.674S112.121,21.589,110.199,21.589 M111.232,49.447c-4.973,0-9.021-1.523-12.144-4.575
	c-3.124-3.049-4.684-7.113-4.684-12.19v-0.876c0-3.406,0.658-6.452,1.974-9.138c1.316-2.685,3.18-4.752,5.594-6.203
	c2.413-1.453,5.165-2.18,8.257-2.18c4.64,0,8.289,1.463,10.953,4.389c2.664,2.925,3.996,7.07,3.996,12.439v3.697h-21.594
	c0.294,2.216,1.175,3.991,2.649,5.328c1.473,1.338,3.338,2.006,5.593,2.006c3.489,0,6.215-1.263,8.179-3.791l4.452,4.981
	c-1.359,1.924-3.198,3.421-5.517,4.498C116.625,48.91,114.053,49.447,111.232,49.447"/>
<path fill="#349DFF" d="M139.557,6.577v8.336h6.822v6.645h-6.822V38.48c0,1.254,0.24,2.152,0.72,2.694
	c0.48,0.545,1.401,0.815,2.757,0.815c1.004,0,1.893-0.073,2.665-0.222v6.865c-1.775,0.543-3.604,0.812-5.485,0.812
	c-6.352,0-9.589-3.206-9.713-9.621v-18.27h-4.952v-6.644h4.951V6.576L139.557,6.577L139.557,6.577z"/>
<path fill="#349DFF" d="M162.718,6.577v8.336h5.798v6.645h-5.798V38.48c0,1.254,0.239,2.152,0.72,2.694
	c0.48,0.545,1.399,0.815,2.757,0.815c1.004,0,1.89-0.073,2.664-0.222v6.865c-1.775,0.543-3.604,0.812-5.482,0.812
	c-6.352,0-9.592-3.206-9.716-9.621v-18.27h-4.951v-6.644h4.951V6.576L162.718,6.577L162.718,6.577z"/>
<path fill="#349DFF" d="M186.335,21.589c-1.795,0-3.252,0.608-4.371,1.826c-1.118,1.217-1.834,2.958-2.147,5.226h12.597v-0.725
	c-0.042-2.015-0.583-3.572-1.628-4.674S188.257,21.589,186.335,21.589 M187.37,49.447c-4.974,0-9.02-1.523-12.145-4.575
	c-3.124-3.049-4.685-7.113-4.685-12.19v-0.876c0-3.406,0.659-6.452,1.974-9.138c1.317-2.685,3.182-4.752,5.594-6.203
	c2.414-1.453,5.167-2.18,8.257-2.18c4.639,0,8.29,1.463,10.954,4.389c2.663,2.925,3.996,7.07,3.996,12.439v3.697h-21.592
	c0.293,2.216,1.174,3.991,2.647,5.328c1.475,1.338,3.338,2.006,5.595,2.006c3.489,0,6.215-1.263,8.179-3.791l4.451,4.981
	c-1.359,1.924-3.197,3.421-5.517,4.498C192.761,48.91,190.191,49.447,187.37,49.447"/>
<path fill="#349DFF" d="M223.904,23.405c-1.233-0.167-2.317-0.25-3.258-0.25c-3.426,0-5.674,1.158-6.737,3.479v22.188h-9.059v-33.91
	h8.555l0.252,4.043c1.816-3.112,4.336-4.669,7.553-4.669c1,0,1.942,0.137,2.82,0.408L223.904,23.405z"/>
<path fill="#349DFF" d="M257.487,39.394c0-1.105-0.548-1.979-1.646-2.617c-1.095-0.636-2.857-1.206-5.281-1.708
	c-8.064-1.692-12.095-5.118-12.095-10.279c0-3.008,1.247-5.521,3.744-7.537c2.495-2.018,5.761-3.022,9.792-3.022
	c4.303,0,7.746,1.014,10.327,3.039c2.58,2.026,3.87,4.66,3.87,7.897h-9.058c0-1.296-0.417-2.365-1.253-3.213
	c-0.835-0.847-2.142-1.271-3.917-1.271c-1.526,0-2.706,0.345-3.542,1.035c-0.835,0.688-1.254,1.565-1.254,2.632
	c0,1.002,0.474,1.812,1.427,2.43c0.95,0.616,2.555,1.148,4.811,1.598c2.256,0.449,4.157,0.956,5.703,1.521
	c4.786,1.755,7.178,4.796,7.178,9.12c0,3.092-1.328,5.594-3.981,7.506c-2.651,1.912-6.079,2.868-10.278,2.868
	c-2.842,0-5.365-0.507-7.569-1.521c-2.203-1.015-3.933-2.402-5.186-4.167c-1.253-1.768-1.88-3.672-1.88-5.721h8.587
	c0.083,1.608,0.678,2.841,1.785,3.697s2.591,1.285,4.45,1.285c1.734,0,3.044-0.33,3.933-0.988
	C257.043,41.321,257.487,40.458,257.487,39.394"/>
<path fill="#349DFF" d="M283.892,42.091c1.663,0,3.014-0.46,4.054-1.382c1.04-0.919,1.579-2.142,1.619-3.666h8.454
	c-0.022,2.3-0.646,4.403-1.873,6.313c-1.226,1.912-2.904,3.396-5.035,4.45c-2.132,1.056-4.485,1.583-7.063,1.583
	c-4.823,0-8.627-1.541-11.412-4.621c-2.787-3.083-4.179-7.339-4.179-12.771V31.4c0-5.223,1.382-9.391,4.148-12.504
	c2.765-3.112,6.557-4.669,11.38-4.669c4.22,0,7.603,1.206,10.15,3.62c2.546,2.412,3.84,5.624,3.883,9.638h-8.453
	c-0.041-1.765-0.58-3.199-1.62-4.302c-1.04-1.103-2.412-1.652-4.117-1.652c-2.1,0-3.684,0.77-4.756,2.306
	c-1.07,1.539-1.605,4.035-1.605,7.486v0.94c0,3.495,0.529,6.006,1.59,7.534C280.119,41.326,281.729,42.091,283.892,42.091"/>
<path fill="#349DFF" d="M310.924,48.765h-9.044V14.855h9.044V48.765z M301.351,6.081c0-1.357,0.452-2.478,1.355-3.354
	c0.905-0.877,2.137-1.315,3.696-1.315c1.539,0,2.765,0.438,3.678,1.315c0.916,0.877,1.373,1.996,1.373,3.354
	c0,1.378-0.462,2.508-1.388,3.385s-2.146,1.315-3.663,1.315c-1.519,0-2.739-0.438-3.666-1.315
	C301.812,8.589,301.351,7.459,301.351,6.081"/>
<path fill="#349DFF" d="M329.927,21.531c-1.788,0-3.237,0.607-4.349,1.824c-1.112,1.218-1.824,2.958-2.135,5.227h12.535v-0.726
	c-0.043-2.014-0.584-3.572-1.623-4.674C333.316,22.082,331.841,21.531,329.927,21.531 M330.956,49.391
	c-4.947,0-8.976-1.524-12.082-4.575c-3.109-3.051-4.662-7.113-4.662-12.189v-0.877c0-3.406,0.654-6.452,1.964-9.137
	c1.309-2.685,3.165-4.752,5.566-6.205c2.399-1.451,5.138-2.178,8.215-2.178c4.617,0,8.247,1.461,10.898,4.388
	c2.65,2.925,3.977,7.072,3.977,12.44v3.696h-21.486c0.292,2.218,1.169,3.991,2.639,5.328c1.463,1.338,3.318,2.008,5.562,2.008
	c3.473,0,6.188-1.267,8.14-3.795l4.429,4.983c-1.353,1.922-3.181,3.422-5.488,4.497C336.318,48.853,333.763,49.391,330.956,49.391"
	/>
<path fill="#349DFF" d="M356.532,14.855l0.281,3.917c2.404-3.027,5.628-4.543,9.672-4.543c3.566,0,6.22,1.055,7.964,3.164
	c1.74,2.109,2.633,5.268,2.672,9.464v21.907h-8.986V27.028c0-1.928-0.417-3.324-1.246-4.195c-0.83-0.867-2.208-1.302-4.135-1.302
	c-2.532,0-4.428,1.089-5.693,3.268v23.966h-8.986V14.855H356.532L356.532,14.855z"/>
<path fill="#349DFF" d="M410.416,48.765h-9.043V14.855h9.043V48.765z M400.841,6.081c0-1.357,0.453-2.478,1.357-3.354
	c0.901-0.877,2.137-1.315,3.694-1.315c1.537,0,2.765,0.438,3.679,1.315c0.916,0.877,1.373,1.996,1.373,3.354
	c0,1.378-0.463,2.508-1.39,3.385c-0.924,0.877-2.145,1.315-3.662,1.315c-1.52,0-2.737-0.438-3.664-1.315
	C401.306,8.589,400.841,7.459,400.841,6.081"/>
<path fill="#349DFF" d="M447.242,48.765h-9.043V14.855h9.043V48.765L447.242,48.765z M437.669,6.081
	c0-1.357,0.451-2.478,1.355-3.354c0.903-0.876,2.137-1.315,3.694-1.315c1.539,0,2.765,0.438,3.681,1.315
	c0.914,0.877,1.368,1.996,1.368,3.354c0,1.378-0.459,2.508-1.385,3.385c-0.924,0.877-2.146,1.315-3.664,1.315
	c-1.516,0-2.737-0.438-3.664-1.315C438.132,8.589,437.669,7.459,437.669,6.081"/>
<path fill="#349DFF" d="M465.906,42.091c1.664,0,3.016-0.46,4.053-1.382c1.043-0.919,1.58-2.142,1.623-3.666h8.449
	c-0.021,2.3-0.646,4.403-1.871,6.313c-1.228,1.912-2.904,3.396-5.035,4.45c-2.131,1.056-4.486,1.583-7.061,1.583
	c-4.824,0-8.628-1.541-11.412-4.621c-2.787-3.083-4.181-7.339-4.181-12.771V31.4c0-5.223,1.384-9.391,4.146-12.504
	c2.764-3.112,6.559-4.669,11.379-4.669c4.223,0,7.604,1.206,10.15,3.62c2.547,2.412,3.842,5.624,3.881,9.638h-8.447
	c-0.043-1.765-0.582-3.199-1.623-4.302c-1.037-1.103-2.41-1.652-4.115-1.652c-2.1,0-3.684,0.77-4.756,2.306
	c-1.067,1.539-1.604,4.035-1.604,7.486v0.94c0,3.495,0.526,6.006,1.59,7.534C462.134,41.326,463.744,42.091,465.906,42.091"/>
<path fill="#349DFF" d="M514.406,39.578c0-1.104-0.547-1.978-1.646-2.614c-1.096-0.639-2.854-1.207-5.281-1.71
	c-8.062-1.691-12.094-5.118-12.094-10.278c0-3.009,1.246-5.521,3.744-7.537c2.494-2.017,5.76-3.023,9.791-3.023
	c4.303,0,7.746,1.014,10.328,3.04c2.58,2.025,3.869,4.658,3.869,7.896h-9.058c0-1.294-0.418-2.363-1.254-3.212
	c-0.836-0.847-2.143-1.27-3.916-1.27c-1.526,0-2.707,0.346-3.543,1.034c-0.836,0.689-1.254,1.565-1.254,2.633
	c0,1.001,0.476,1.812,1.429,2.429c0.948,0.615,2.555,1.147,4.811,1.597c2.256,0.451,4.156,0.956,5.703,1.521
	c4.785,1.757,7.178,4.795,7.178,9.119c0,3.095-1.328,5.596-3.979,7.507c-2.65,1.912-6.078,2.867-10.277,2.867
	c-2.842,0-5.365-0.506-7.57-1.521c-2.203-1.014-3.932-2.4-5.186-4.168c-1.252-1.767-1.879-3.673-1.879-5.719h8.586
	c0.082,1.61,0.678,2.842,1.785,3.696c1.104,0.857,2.592,1.285,4.448,1.285c1.734,0,3.045-0.328,3.935-0.986
	C513.962,41.508,514.406,40.646,514.406,39.578"/>
<path fill="#349DFF" d="M534.441,32.325c0,3.224,0.604,5.688,1.815,7.394s2.945,2.558,5.203,2.558c2.193,0,3.906-0.843,5.141-2.527
	c1.232-1.686,1.853-4.377,1.853-8.082c0-3.158-0.617-5.606-1.853-7.345c-1.231-1.736-2.967-2.604-5.2-2.604
	c-2.218,0-3.933,0.861-5.144,2.588C535.048,26.032,534.441,28.705,534.441,32.325 M525.386,31.684c0-3.363,0.648-6.362,1.941-8.995
	c1.297-2.631,3.162-4.668,5.594-6.109c2.435-1.441,5.26-2.163,8.479-2.163c4.573,0,8.311,1.4,11.202,4.2
	c2.896,2.801,4.509,6.602,4.843,11.406l0.062,2.319c0,5.202-1.453,9.375-4.354,12.521c-2.906,3.145-6.802,4.716-11.689,4.716
	s-8.789-1.566-11.703-4.701c-2.916-3.132-4.373-7.396-4.373-12.785L525.386,31.684L525.386,31.684z"/>
<path fill="#349DFF" d="M562.808,48.95V21.686h-5.084V15.04h5.084v-2.882c0-3.803,1.101-6.754,3.3-8.854
	c2.198-2.103,5.276-3.149,9.233-3.149c1.267,0,2.812,0.208,4.644,0.621l-0.097,6.964c-0.756-0.188-1.684-0.283-2.774-0.283
	c-3.437,0-5.148,1.613-5.148,4.836v2.747h6.791v6.646h-6.791v27.266L562.808,48.95L562.808,48.95z"/>
<path fill="#349DFF" d="M595.576,6.704v8.335h5.844v6.646h-5.844v16.924c0,1.252,0.242,2.151,0.729,2.694
	c0.482,0.544,1.41,0.813,2.777,0.813c1.01,0,1.904-0.072,2.684-0.219v6.861c-1.789,0.545-3.633,0.815-5.524,0.815
	c-6.398,0-9.662-3.207-9.787-9.621v-18.27h-4.988v-6.646h4.988V6.703L595.576,6.704L595.576,6.704z"/>
<polygon fill="#349DFF" points="642.041,15.04 637.457,36.635 631.097,15.04 624.351,15.04 617.96,36.603 613.408,15.04 
	604.402,15.04 613.31,48.95 621.091,48.95 627.708,27.608 634.326,48.95 642.136,48.95 651.044,15.04 "/>
<path fill="#349DFF" d="M664.839,42.651c1.351,0,2.592-0.299,3.729-0.893c1.137-0.598,1.979-1.396,2.524-2.398v-5.83h-3.41
	c-4.567,0-7,1.567-7.295,4.701l-0.03,0.533c0,1.128,0.399,2.059,1.2,2.79C662.357,42.286,663.451,42.651,664.839,42.651
	 M672.386,48.95c-0.418-0.813-0.725-1.828-0.914-3.04c-2.211,2.444-5.084,3.667-8.619,3.667c-3.348,0-6.118-0.96-8.319-2.885
	c-2.199-1.922-3.299-4.344-3.299-7.269c0-3.595,1.342-6.354,4.024-8.273c2.687-1.922,6.562-2.894,11.635-2.916h4.199v-1.942
	c0-1.565-0.403-2.819-1.217-3.759c-0.811-0.94-2.088-1.41-3.838-1.41c-1.533,0-2.74,0.365-3.613,1.098
	c-0.873,0.729-1.309,1.733-1.309,3.007h-9.125c0-1.963,0.606-3.779,1.83-5.454c1.221-1.67,2.944-2.98,5.178-3.932
	c2.229-0.951,4.736-1.427,7.516-1.427c4.209,0,7.552,1.05,10.025,3.148c2.473,2.1,3.709,5.052,3.709,8.854v14.698
	c0.02,3.218,0.475,5.648,1.354,7.301v0.533L672.386,48.95L672.386,48.95z"/>
<path fill="#349DFF" d="M704.457,23.534c-1.242-0.167-2.336-0.25-3.285-0.25c-3.451,0-5.715,1.16-6.787,3.479v22.188h-9.125v-33.91
	h8.619l0.254,4.043c1.83-3.113,4.367-4.67,7.609-4.67c1.01,0,1.955,0.137,2.84,0.408L704.457,23.534z"/>
<path fill="#349DFF" d="M721.781,21.718c-1.812,0-3.279,0.606-4.404,1.824c-1.125,1.217-1.848,2.958-2.164,5.226h12.693v-0.724
	c-0.041-2.015-0.588-3.572-1.644-4.674C725.21,22.269,723.716,21.718,721.781,21.718 M722.822,49.577
	c-5.01,0-9.088-1.524-12.234-4.575c-3.146-3.05-4.719-7.113-4.719-12.19v-0.876c0-3.405,0.662-6.452,1.988-9.136
	c1.321-2.686,3.202-4.752,5.635-6.205c2.434-1.452,5.205-2.179,8.317-2.179c4.677,0,8.353,1.462,11.037,4.389
	c2.685,2.925,4.025,7.071,4.025,12.439v3.697h-21.756c0.295,2.216,1.184,3.992,2.67,5.329c1.481,1.336,3.361,2.006,5.635,2.006
	c3.514,0,6.262-1.265,8.242-3.794l4.481,4.984c-1.37,1.924-3.221,3.421-5.559,4.498C728.253,49.038,725.666,49.577,722.822,49.577"
	/>
<path fill="#349DFF" d="M31.234,25.507c-0.628,0-1.14,0.511-1.14,1.14v21.862c0,0.628,0.511,1.14,1.14,1.14
	c3.219,0,6.249-1.257,8.532-3.539c2.282-2.282,3.539-5.312,3.539-8.531C43.304,30.922,37.89,25.507,31.234,25.507z M41.025,37.577
	c0,4.982-3.758,9.155-8.65,9.726v-19.45C37.267,28.422,41.025,32.595,41.025,37.577z"/>
<path fill="#349DFF" d="M31.234,24.222c3.219,0,6.249-1.257,8.532-3.539c2.282-2.283,3.539-5.313,3.539-8.532
	c0-6.656-5.415-12.07-12.07-12.07c-0.628,0-1.14,0.512-1.14,1.141v21.861C30.094,23.71,30.605,24.222,31.234,24.222z M32.375,21.875
	V2.426c4.892,0.568,8.65,4.741,8.65,9.724C41.025,17.133,37.267,21.306,32.375,21.875z"/>
<path fill="#349DFF" d="M27.124,25.467H16.138c-0.629,0-1.14,0.511-1.14,1.14v21.902c0,0.628,0.511,1.14,1.14,1.14h10.986
	c0.629,0,1.14-0.512,1.14-1.14V26.606C28.264,25.978,27.753,25.467,27.124,25.467z M25.984,27.746v19.622h-8.706V27.746H25.984z"/>
<path fill="#349DFF" d="M27.124,0.039H16.138c-0.629,0-1.14,0.512-1.14,1.141v21.901c0,0.628,0.511,1.141,1.14,1.141h10.986
	c0.629,0,1.14-0.512,1.14-1.141V1.18C28.264,0.551,27.753,0.039,27.124,0.039z M25.984,2.319V21.94h-8.706V2.319H25.984z"/>
<path fill="#349DFF" d="M12.126,0.039H1.14C0.511,0.039,0,0.551,0,1.18v47.291c0,0.628,0.511,1.14,1.14,1.14h10.986
	c0.629,0,1.14-0.512,1.14-1.14V1.18C13.266,0.551,12.755,0.039,12.126,0.039z M10.986,2.319v45.01H2.28V2.319H10.986z"/>
<path fill="#349DFF" d="M427.63,12.106c0-3.224,1.795-4.778,5.185-4.778c0.579,0,1.166,0.139,1.649,0.139h0.023l0.383-6.986
	C433.507,0.214,432.163,0,431.161,0c-3.908,0-7.211,1.035-9.385,3.135c-2.173,2.1-3.523,5.038-3.523,8.84v3.427h-4.328v6.492h4.328
	v27.412h9.379V21.893h7.213V15.4h-7.213v-3.294H427.63z"/>
<path fill="#349DFF" d="M395.597,41.934c-1.354,0-2.19-0.271-2.672-0.814c-0.477-0.543-0.641-1.44-0.641-2.693V21.894h6.492V15.4
	h-6.492V6.023h-10.101V15.4h-3.604v6.493h3.604V39.77c0,6.415,4.081,9.622,10.4,9.622c1.871,0,3.307-0.271,6.191-0.814v-6.861
	C397.333,41.858,396.591,41.934,395.597,41.934"/>
</svg>
