<?xml version="1.0" encoding="utf-8"?>
<!-- Generator: Adobe Illustrator 15.0.0, SVG Export Plug-In  -->
<!DOCTYPE svg PUBLIC "-//W3C//DTD SVG 1.1//EN" "http://www.w3.org/Graphics/SVG/1.1/DTD/svg11.dtd" [
	<!ENTITY ns_flows "http://ns.adobe.com/Flows/1.0/">
]>
<svg version="1.1"
	 xmlns="http://www.w3.org/2000/svg" xmlns:xlink="http://www.w3.org/1999/xlink" xmlns:a="http://ns.adobe.com/AdobeSVGViewerExtensions/3.0/"
	 x="0px" y="0px" width="21px" height="20px" viewBox="0.001 0 21 20" overflow="visible" enable-background="new 0.001 0 21 20"
	 xml:space="preserve">
<defs>
</defs>
<g>
	<defs>
		<rect id="SVGID_1_" x="0.001" width="21.255" height="20.374"/>
	</defs>
	<clipPath id="SVGID_2_">
		<use xlink:href="#SVGID_1_"  overflow="visible"/>
	</clipPath>
	<path clip-path="url(#SVGID_2_)" fill="#19197D" d="M12.315,6.36c-2.068,2.102-3.825,4.287-5.232,6.508l-0.019-0.042
		C6.136,10.761,5.283,9.8,4.377,9.8c-0.934,0-1.898,0.538-2.945,1.646l-0.534,0.562l0.734,0.253c0.46,0.158,0.888,0.493,1.273,0.994
		c0.42,0.547,0.888,1.42,1.391,2.595l0.365,0.849c0.369,0.898,0.611,1.549,0.721,1.946l0.221,0.798l0.603-0.567
		c0.277-0.26,0.802-0.657,1.574-1.193l0.959-0.649l0.113-0.076l0.059-0.124c1.178-2.486,2.914-5.205,5.159-8.077
		c2.239-2.866,4.297-5.015,6.114-6.383l0.386-0.291l-0.277-0.395l-0.457-0.653l-0.26-0.373l-0.396,0.225
		C16.951,2.155,14.64,3.997,12.315,6.36"/>
	<path clip-path="url(#SVGID_2_)" fill="none" stroke="#349DFF" d="M12.315,6.36c-2.068,2.102-3.825,4.287-5.232,6.508l-0.019-0.042
		C6.136,10.761,5.283,9.8,4.377,9.8c-0.934,0-1.898,0.538-2.945,1.646l-0.534,0.562l0.734,0.253c0.46,0.158,0.888,0.493,1.273,0.994
		c0.42,0.547,0.888,1.42,1.391,2.595l0.365,0.849c0.369,0.898,0.611,1.549,0.721,1.946l0.221,0.798l0.603-0.567
		c0.277-0.26,0.802-0.657,1.574-1.193l0.959-0.649l0.113-0.076l0.059-0.124c1.178-2.486,2.914-5.205,5.159-8.077
		c2.239-2.866,4.297-5.015,6.114-6.383l0.386-0.291l-0.277-0.395l-0.457-0.653l-0.26-0.373l-0.396,0.225
		C16.951,2.155,14.64,3.997,12.315,6.36z"/>
</g>
</svg>
