<?xml version="1.0" encoding="utf-8"?>
<!-- Generator: Adobe Illustrator 15.0.0, SVG Export Plug-In  -->
<!DOCTYPE svg PUBLIC "-//W3C//DTD SVG 1.1//EN" "http://www.w3.org/Graphics/SVG/1.1/DTD/svg11.dtd" [
	<!ENTITY ns_flows "http://ns.adobe.com/Flows/1.0/">
]>
<svg version="1.1"
	 xmlns="http://www.w3.org/2000/svg" xmlns:xlink="http://www.w3.org/1999/xlink" xmlns:a="http://ns.adobe.com/AdobeSVGViewerExtensions/3.0/"
	 x="0px" y="0px" width="36px" height="36px" viewBox="0 0 36 36" overflow="visible" enable-background="new 0 0 36 36"
	 xml:space="preserve">
<defs>
</defs>
<path fill="#FFFFFF" d="M17.695,21.75c0,0.203-0.078,0.383-0.234,0.539L9.68,30.07l3.375,3.375c0.297,0.297,0.445,0.648,0.445,1.055
	s-0.148,0.758-0.445,1.055S12.406,36,12,36H1.5c-0.406,0-0.758-0.148-1.055-0.445S0,34.906,0,34.5V24
	c0-0.406,0.148-0.758,0.445-1.055S1.094,22.5,1.5,22.5s0.758,0.148,1.055,0.445L5.93,26.32l7.781-7.781
	c0.156-0.156,0.336-0.234,0.539-0.234s0.383,0.078,0.539,0.234l2.672,2.672C17.617,21.367,17.695,21.547,17.695,21.75z M36,1.5V12
	c0,0.406-0.148,0.758-0.445,1.055S34.906,13.5,34.5,13.5s-0.758-0.148-1.055-0.445L30.07,9.68l-7.781,7.781
	c-0.156,0.156-0.336,0.234-0.539,0.234s-0.383-0.078-0.539-0.234l-2.672-2.672c-0.156-0.156-0.234-0.336-0.234-0.539
	s0.078-0.383,0.234-0.539L26.32,5.93l-3.375-3.375C22.648,2.258,22.5,1.906,22.5,1.5s0.148-0.758,0.445-1.055S23.594,0,24,0h10.5
	c0.406,0,0.758,0.148,1.055,0.445S36,1.094,36,1.5z"/>
</svg>
