<?xml version="1.0" encoding="utf-8"?>
<!-- Generator: Adobe Illustrator 15.0.0, SVG Export Plug-In  -->
<!DOCTYPE svg PUBLIC "-//W3C//DTD SVG 1.1//EN" "http://www.w3.org/Graphics/SVG/1.1/DTD/svg11.dtd" [
	<!ENTITY ns_flows "http://ns.adobe.com/Flows/1.0/">
]>
<svg version="1.1"
	 xmlns="http://www.w3.org/2000/svg" xmlns:xlink="http://www.w3.org/1999/xlink" xmlns:a="http://ns.adobe.com/AdobeSVGViewerExtensions/3.0/"
	 x="0px" y="0px" width="1641px" height="609px" viewBox="0 0 1641 609" overflow="visible" enable-background="new 0 0 1641 609"
	 xml:space="preserve">
<defs>
</defs>
<rect x="1.444" y="1.443" fill="#FAF7F7" width="1638.113" height="606.352"/>
<g>
	<defs>
		<rect id="SVGID_1_" width="1641" height="609.24"/>
	</defs>
	<clipPath id="SVGID_2_">
		<use xlink:href="#SVGID_1_"  overflow="visible"/>
	</clipPath>
	
		<path clip-path="url(#SVGID_2_)" fill="none" stroke="#EDEDED" stroke-width="3" stroke-linecap="round" stroke-linejoin="round" stroke-miterlimit="10" d="
		M1349.834,607.739V530.66h-19.987v77.079 M1318.297,607.739V530.66h-19.986v77.079 M1286.896,607.739V530.66h-19.987v77.079
		 M1255.36,607.739V530.66h-19.988v77.079 M1329.847,1.5v140.29h19.987V1.5 M1298.311,1.5v140.29h19.986V1.5 M1266.909,1.5v140.29
		h19.987V1.5 M1235.372,1.5v140.29h19.988V1.5 M1109.293,341.729h177.34v19.984h-177.34V341.729z M1109.293,373.262h177.34v19.984
		h-177.34V373.262z M1109.293,467.66h177.34v19.986h-177.34V467.66z M1109.293,499.194h177.34v19.985h-177.34V499.194z
		 M1109.293,404.658h177.34v19.986h-177.34V404.658z M1109.293,436.191h177.34v19.986h-177.34V436.191z M1298.344,330.346
		c50.084,0,90.693-39.702,90.693-88.672c0-48.973-40.609-88.672-90.693-88.672V330.346z M668.872,1.5v45.667h177.339V1.5
		 M531.46,373.329c-23.394,0-42.364,18.544-42.364,41.419c0,22.876,18.971,41.42,42.364,41.42V373.329z M531.46,278.794
		c-23.394,0-42.364,18.543-42.364,41.418c0,22.877,18.971,41.42,42.364,41.42V278.794z M1424.189,424.635
		c23.394,0,42.363-18.543,42.363-41.418s-18.97-41.42-42.363-41.42V424.635z M1424.189,519.17c23.394,0,42.363-18.543,42.363-41.42
		s-18.97-41.42-42.363-41.42V519.17z M1361.243,424.635c23.395,0,42.364-18.543,42.364-41.418s-18.97-41.42-42.364-41.42V424.635z
		 M1361.243,519.17c23.395,0,42.364-18.543,42.364-41.42s-18.97-41.42-42.364-41.42V519.17z M1297.115,424.635
		c23.395,0,42.363-18.543,42.363-41.418s-18.969-41.42-42.363-41.42V424.635z M1297.115,519.17c23.395,0,42.363-18.543,42.363-41.42
		s-18.969-41.42-42.363-41.42V519.17z M1003.462,393.24c0-23.393-18.547-42.359-41.424-42.359
		c-22.879,0-41.424,18.967-41.424,42.359H1003.462z M1098.009,393.24c0-23.393-18.546-42.359-41.425-42.359
		s-41.424,18.967-41.424,42.359H1098.009z M1003.462,456.168c0-23.393-18.547-42.359-41.424-42.359
		c-22.879,0-41.424,18.967-41.424,42.359H1003.462z M1098.009,456.168c0-23.393-18.546-42.359-41.425-42.359
		s-41.424,18.967-41.424,42.359H1098.009z M856.461,172.965c23.396,0,42.364-18.545,42.364-41.42
		c0-22.876-18.969-41.42-42.364-41.42V172.965z M856.461,267.5c23.396,0,42.364-18.544,42.364-41.42s-18.969-41.419-42.364-41.419
		V267.5z M793.529,172.965c23.396,0,42.365-18.545,42.365-41.42c0-22.876-18.97-41.42-42.365-41.42V172.965z M793.529,267.5
		c23.396,0,42.365-18.544,42.365-41.42s-18.97-41.419-42.365-41.419V267.5z M594.422,373.329c-23.394,0-42.364,18.544-42.364,41.419
		c0,22.876,18.971,41.42,42.364,41.42V373.329z M594.422,278.794c-23.394,0-42.364,18.543-42.364,41.418
		c0,22.877,18.971,41.42,42.364,41.42V278.794z M657.355,373.329c-23.396,0-42.365,18.544-42.365,41.419
		c0,22.876,18.969,41.42,42.365,41.42V373.329z M657.355,278.794c-23.396,0-42.365,18.543-42.365,41.418
		c0,22.877,18.969,41.42,42.365,41.42V278.794z M102.428,215.856h176.852v51.386H102.428V215.856z M102.428,89.998h176.852v51.393
		H102.428V89.998z M102.428,152.917h176.852v51.392H102.428V152.917z M196.853,341.848c0,23.394,18.547,42.36,41.426,42.36
		c22.88,0,41.425-18.967,41.425-42.36H196.853z M102.307,341.848c0,23.394,18.547,42.36,41.427,42.36
		c22.879,0,41.424-18.967,41.424-42.36H102.307z M185.158,78.578c0-23.392-18.546-42.36-41.425-42.36
		c-22.88,0-41.426,18.968-41.426,42.36H185.158z M279.705,78.578c0-23.392-18.546-42.36-41.425-42.36
		c-22.88,0-41.425,18.968-41.425,42.36H279.705z M196.853,278.923c0,23.393,18.547,42.361,41.426,42.361
		c22.88,0,41.425-18.968,41.425-42.361H196.853z M102.307,278.923c0,23.393,18.547,42.361,41.427,42.361
		c22.879,0,41.424-18.968,41.424-42.361H102.307z M1639.5,278.923h-89.702c0,50.365,39.931,91.201,89.189,91.201 M1639.5,153.044
		h-89.432v114.332h89.432 M668.904,467.73c0,50.079,39.704,90.683,88.681,90.683c48.979,0,88.682-40.604,88.682-90.683H668.904z
		 M468.618,267.376c0-50.079-39.705-90.683-88.683-90.683c-48.979,0-88.683,40.604-88.683,90.683H468.618z M1.688,370.124
		c49.26,0,89.19-40.837,89.19-91.201H1.5 M846.135,607.738v-14.147H668.796v14.147 M479.958,467.73h177.34v19.986h-177.34V467.73z
		 M479.958,499.264h177.34v19.985h-177.34V499.264z M479.958,530.66h177.34v19.985h-177.34V530.66z M479.958,562.194h177.34v19.986
		h-177.34V562.194z M291.134,467.73h177.34v114.312h-177.34V467.73z M291.253,121.659h177.34v19.986h-177.34V121.659z
		 M668.751,58.593h177.34v19.986h-177.34V58.593z M291.253,90.125h177.34v19.986h-177.34V90.125z M1549.947,1.5v139.997h19.988V1.5
		 M1613.02,1.5v139.997h19.988V1.5 M1581.484,1.5v139.997h19.986V1.5 M7.818,1.5v139.997h19.987V1.5 M70.891,1.5v139.997h19.988V1.5
		 M39.354,1.5v139.997h19.988V1.5 M1570.055,607.739V530.66h-19.986v77.079 M1601.592,607.739V530.66h-19.988v77.079 M27.805,607.74
		v-77.08H7.818v77.079 M1633.002,607.739V530.66h-19.989v77.079 M90.879,607.739V530.66H70.891v77.079 M59.342,607.611V530.66
		H39.354v77.079 M1639.5,467.727h-152.378v51.387H1639.5 M1639.5,404.787h-152.378v51.393H1639.5 M1.5,519.113h26.352v-51.387H1.5
		 M1.5,456.18h26.352v-51.393H1.5 M657.355,607.739V593.59H291.177v14.149 M291.177,1.5v77.078h366.179V1.5 M102.428,1.5v14.134
		h177.276V1.5 M279.704,607.739V404.787H102.428v202.952 M480.078,153.044h303.155v114.331H480.078V153.044z M1046.561,1.5v139.891
		h51.383V1.5 M983.62,1.5v139.891h51.382V1.5 M857.735,1.5v77.078h51.383V1.5 M920.676,1.5v139.891h51.383V1.5 M1097.943,607.738
		V467.731h-51.383v140.007 M1109.49,90.125h114.332v51.266H1109.49V90.125z M1424.189,152.919h51.384v177.383h-51.384V152.919z
		 M1109.49,1.5v77.071h114.332V1.5 M1223.822,607.739V530.66H1109.49v77.079 M1035.002,607.738V467.731H983.62v140.007
		 M909.118,607.739v-45.546h-51.383v45.546 M972.059,607.738V467.731h-51.383v140.007 M857.735,467.73h51.383v82.827h-51.383V467.73
		z M39.354,467.725h51.524v51.392H39.354V467.725z M39.354,404.787h51.524v51.393H39.354V404.787z M1487.137,341.848h51.385v51.44
		h-51.385V341.848z M1487.137,153.044h51.385v177.299h-51.385V153.044z M857.735,278.793h51.383V456.18h-51.383V278.793z
		 M794.794,278.793h51.382V456.18h-51.382V278.793z M731.85,278.793h51.384V456.18H731.85V278.793z M668.904,278.793h51.382V456.18
		h-51.382V278.793z M480.078,90.537h51.383v51.106h-51.383V90.537z M543.024,90.537h51.384v51.106h-51.384V90.537z M605.941,90.537
		h177.276v51.106H605.941V90.537z M1361.132,1.5v139.891h177.388V1.5 M1538.52,607.739V530.66h-177.388v77.079 M920.676,153.044
		h366.09v177.256h-366.09V153.044z M291.253,278.923H468.53V456.18H291.253V278.923z M1.5,267.376h89.4V153.044H1.5"/>
</g>
</svg>
