<?xml version="1.0" encoding="utf-8"?>
<!-- Generator: Adobe Illustrator 16.0.0, SVG Export Plug-In . SVG Version: 6.00 Build 0)  -->
<!DOCTYPE svg PUBLIC "-//W3C//DTD SVG 1.1//EN" "http://www.w3.org/Graphics/SVG/1.1/DTD/svg11.dtd">
<svg version="1.1" id="Layer_1" xmlns="http://www.w3.org/2000/svg" xmlns:xlink="http://www.w3.org/1999/xlink" x="0px" y="0px"
	 width="100px" height="100px" viewBox="0 0 100 100" enable-background="new 0 0 100 100" xml:space="preserve">
<g>
	<defs>
		<rect id="SVGID_1_" x="1" y="1" width="98" height="98"/>
	</defs>
	<clipPath id="SVGID_2_">
		<use xlink:href="#SVGID_1_"  overflow="visible"/>
	</clipPath>
	<path clip-path="url(#SVGID_2_)" fill="#3C3C40" d="M50,99c27.063,0,49-21.939,49-49C99,22.94,77.063,1,50,1C22.938,1,1,22.94,1,50
		C1,77.061,22.938,99,50,99"/>
	<path clip-path="url(#SVGID_2_)" fill="#FFFFFF" d="M54.001,43.791c-2.024,4.17-3.034,8.377-3.034,12.631v7.253h11.506v-8.504
		c0.125-6.128,2.126-11.839,6.003-17.134l-6.629-4.501C58.637,36.205,56.021,39.624,54.001,43.791 M34.304,43.791
		c-2.023,4.17-3.034,8.377-3.034,12.631v7.253h11.507v-8.504c0.125-6.128,2.125-11.839,6.002-17.134l-6.628-4.501
		C38.94,36.205,36.325,39.624,34.304,43.791"/>
</g>
</svg>
